<?xml version="1.0" encoding="UTF-8" standalone="no"?>
<!-- Created with Inkscape (http://www.inkscape.org/) -->

<svg
   xmlns:dc="http://purl.org/dc/elements/1.1/"
   xmlns:cc="http://creativecommons.org/ns#"
   xmlns:rdf="http://www.w3.org/1999/02/22-rdf-syntax-ns#"
   xmlns:svg="http://www.w3.org/2000/svg"
   xmlns="http://www.w3.org/2000/svg"
   xmlns:sodipodi="http://sodipodi.sourceforge.net/DTD/sodipodi-0.dtd"
   xmlns:inkscape="http://www.inkscape.org/namespaces/inkscape"
   width="512"
   height="512"
   viewBox="0 0 511.99999 511.99999"
   id="svg2"
   version="1.1"
   inkscape:version="0.91 r13725"
   inkscape:export-filename="C:\Users\Me\Documents\GitHub\SmallDisc\Assets\materials\sun.png"
   inkscape:export-xdpi="90"
   inkscape:export-ydpi="90"
   sodipodi:docname="moon.svg">
  <defs
     id="defs4">
    <inkscape:path-effect
       effect="spiro"
       id="path-effect4155"
       is_visible="true" />
    <inkscape:path-effect
       effect="spiro"
       id="path-effect4151"
       is_visible="true" />
    <inkscape:path-effect
       effect="spiro"
       id="path-effect4147"
       is_visible="true" />
    <inkscape:path-effect
       effect="spiro"
       id="path-effect4140"
       is_visible="true" />
  </defs>
  <sodipodi:namedview
     id="base"
     pagecolor="#ffffff"
     bordercolor="#666666"
     borderopacity="1.0"
     inkscape:pageopacity="0.0"
     inkscape:pageshadow="2"
     inkscape:zoom="0.49497475"
     inkscape:cx="239.87588"
     inkscape:cy="128.02063"
     inkscape:document-units="px"
     inkscape:current-layer="layer1"
     showgrid="true"
     units="px"
     inkscape:object-nodes="true"
     inkscape:window-width="1280"
     inkscape:window-height="777"
     inkscape:window-x="-8"
     inkscape:window-y="-8"
     inkscape:window-maximized="1"
     inkscape:snap-bbox="true"
     inkscape:bbox-nodes="true">
    <inkscape:grid
       type="xygrid"
       id="grid4136"
       spacingx="7.9999998"
       spacingy="7.9999998"
       empspacing="4" />
  </sodipodi:namedview>
  <metadata
     id="metadata7">
    <rdf:RDF>
      <cc:Work
         rdf:about="">
        <dc:format>image/svg+xml</dc:format>
        <dc:type
           rdf:resource="http://purl.org/dc/dcmitype/StillImage" />
        <dc:title></dc:title>
      </cc:Work>
    </rdf:RDF>
  </metadata>
  <g
     inkscape:label="Layer 1"
     inkscape:groupmode="layer"
     id="layer1"
     transform="translate(0,-540.36219)">
    <path
       style="fill:#b1c0d2;fill-opacity:1;stroke:#2d416f;stroke-width:20;stroke-linecap:butt;stroke-linejoin:miter;stroke-miterlimit:4;stroke-dasharray:none;stroke-dashoffset:0;stroke-opacity:1"
       d="M 256 32 A 224 224 0 0 0 71.037109 129.66211 A 176 256 69.147084 0 1 279.93164 224.90234 A 176 256 69.147084 0 1 155.17773 455.75195 A 224 224 0 0 0 256 480 A 224 224 0 0 0 480 256 A 224 224 0 0 0 256 32 z "
       transform="translate(0,540.36219)"
       id="path4324" />
    <path
       style="fill:#ffffff;fill-opacity:1;stroke:none;stroke-width:20;stroke-linecap:butt;stroke-linejoin:miter;stroke-miterlimit:4;stroke-dasharray:none;stroke-dashoffset:0;stroke-opacity:1"
       d="m 256.63086,622.38281 c -20.3129,0.0121 -40.46596,3.5654 -59.49414,10.48633 52.85212,17.17827 102.16661,53.08529 125.21289,104.85352 26.35829,59.37199 17.32773,131.15882 -18.25644,184.78654 -10.16383,17.04853 -22.60038,32.62328 -35.7709,47.4283 67.71658,-4.8464 132.01967,-52.04412 152.39227,-117.58085 21.4491,-62.37783 4.52571,-137.04553 -44.73897,-181.78666 -31.90533,-30.0394 -75.37769,-48.80003 -119.34471,-48.18718 z"
       id="path4366"
       inkscape:connector-curvature="0" />
  </g>
</svg>
