<?xml version="1.0" encoding="UTF-8" standalone="no"?>
<!-- Created with Inkscape (http://www.inkscape.org/) -->

<svg
   xmlns:dc="http://purl.org/dc/elements/1.1/"
   xmlns:cc="http://creativecommons.org/ns#"
   xmlns:rdf="http://www.w3.org/1999/02/22-rdf-syntax-ns#"
   xmlns:svg="http://www.w3.org/2000/svg"
   xmlns="http://www.w3.org/2000/svg"
   xmlns:sodipodi="http://sodipodi.sourceforge.net/DTD/sodipodi-0.dtd"
   xmlns:inkscape="http://www.inkscape.org/namespaces/inkscape"
   width="512"
   height="512"
   viewBox="0 0 511.99999 511.99999"
   id="svg2"
   version="1.1"
   inkscape:version="0.91 r13725"
   inkscape:export-filename="C:\Users\Me\Documents\GitHub\SmallDisc\Assets\materials\water.png"
   inkscape:export-xdpi="90"
   inkscape:export-ydpi="90"
   sodipodi:docname="water.svg">
  <defs
     id="defs4">
    <inkscape:path-effect
       effect="spiro"
       id="path-effect4155"
       is_visible="true" />
    <inkscape:path-effect
       effect="spiro"
       id="path-effect4151"
       is_visible="true" />
    <inkscape:path-effect
       effect="spiro"
       id="path-effect4147"
       is_visible="true" />
    <inkscape:path-effect
       effect="spiro"
       id="path-effect4140"
       is_visible="true" />
  </defs>
  <sodipodi:namedview
     id="base"
     pagecolor="#ffffff"
     bordercolor="#666666"
     borderopacity="1.0"
     inkscape:pageopacity="0.0"
     inkscape:pageshadow="2"
     inkscape:zoom="0.7"
     inkscape:cx="190.74484"
     inkscape:cy="226.21974"
     inkscape:document-units="px"
     inkscape:current-layer="layer1"
     showgrid="true"
     units="px"
     inkscape:object-nodes="true"
     inkscape:window-width="1280"
     inkscape:window-height="777"
     inkscape:window-x="-8"
     inkscape:window-y="-8"
     inkscape:window-maximized="1">
    <inkscape:grid
       type="xygrid"
       id="grid4136"
       spacingx="7.9999998"
       spacingy="7.9999998"
       empspacing="4" />
  </sodipodi:namedview>
  <metadata
     id="metadata7">
    <rdf:RDF>
      <cc:Work
         rdf:about="">
        <dc:format>image/svg+xml</dc:format>
        <dc:type
           rdf:resource="http://purl.org/dc/dcmitype/StillImage" />
        <dc:title></dc:title>
      </cc:Work>
    </rdf:RDF>
  </metadata>
  <g
     inkscape:label="Layer 1"
     inkscape:groupmode="layer"
     id="layer1"
     transform="translate(0,-540.36219)">
    <rect
       style="fill:#3daa8e;fill-opacity:1;stroke:none;stroke-width:10;stroke-linecap:round;stroke-linejoin:round;stroke-miterlimit:4;stroke-dasharray:none;stroke-dashoffset:0;stroke-opacity:1"
       id="rect4159"
       width="512"
       height="512"
       x="0"
       y="540.36218" />
    <path
       style="fill:#3daa8e;fill-opacity:1;stroke:#86d2b1;stroke-width:20;stroke-linecap:round;stroke-linejoin:round;stroke-miterlimit:4;stroke-dasharray:none;stroke-dashoffset:0;stroke-opacity:1"
       d="m 224,668.36218 a 96,63.999989 0 0 1 -96,63.99999 96,63.999989 0 0 1 -96,-63.99999 96,63.999989 0 0 1 96,-63.99999 96,63.999989 0 0 1 96,63.99999 z"
       id="path4227" />
    <path
       inkscape:connector-curvature="0"
       style="fill:#3daa8e;fill-opacity:1;stroke:#86d2b1;stroke-width:20;stroke-linecap:round;stroke-linejoin:round;stroke-miterlimit:4;stroke-dasharray:none;stroke-dashoffset:0;stroke-opacity:1"
       d="m 416,764.36219 a 96,63.999989 0 0 1 -96,63.99999 96,63.999989 0 0 1 -96,-63.99999 96,63.999989 0 0 1 96,-63.99999 96,63.999989 0 0 1 96,63.99999 z"
       id="path4227-6" />
    <path
       inkscape:connector-curvature="0"
       style="fill:#3daa8e;fill-opacity:1;stroke:#86d2b1;stroke-width:20;stroke-linecap:round;stroke-linejoin:round;stroke-miterlimit:4;stroke-dasharray:none;stroke-dashoffset:0;stroke-opacity:1"
       d="M 288,924.36219 A 96,63.999989 0 0 1 192,988.36218 96,63.999989 0 0 1 95.999998,924.36219 96,63.999989 0 0 1 192,860.3622 a 96,63.999989 0 0 1 96,63.99999 z"
       id="path4227-0" />
    <path
       inkscape:connector-curvature="0"
       style="fill:#3daa8e;fill-opacity:1;stroke:#86d2b1;stroke-width:20;stroke-linecap:round;stroke-linejoin:round;stroke-miterlimit:4;stroke-dasharray:none;stroke-dashoffset:0;stroke-opacity:1"
       d="m 64,892.36219 a 96,63.999989 0 0 1 -96,63.99999 96,63.999989 0 0 1 -96,-63.99999 96,63.999989 0 0 1 96,-63.99999 96,63.999989 0 0 1 96,63.99999 z"
       id="path4227-5" />
    <path
       inkscape:connector-curvature="0"
       style="fill:#3daa8e;fill-opacity:1;stroke:#86d2b1;stroke-width:20;stroke-linecap:round;stroke-linejoin:round;stroke-miterlimit:4;stroke-dasharray:none;stroke-dashoffset:0;stroke-opacity:1"
       d="m 576,892.36219 a 96,63.999989 0 0 1 -96,63.99999 96,63.999989 0 0 1 -96,-63.99999 96,63.999989 0 0 1 96,-63.99999 96,63.999989 0 0 1 96,63.99999 z"
       id="path4227-02" />
    <path
       inkscape:connector-curvature="0"
       style="fill:#3daa8e;fill-opacity:1;stroke:#86d2b1;stroke-width:20;stroke-linecap:round;stroke-linejoin:round;stroke-miterlimit:4;stroke-dasharray:none;stroke-dashoffset:0;stroke-opacity:1"
       d="m 480,572.36219 a 96,63.999989 0 0 1 -96,63.99999 96,63.999989 0 0 1 -96,-63.99999 96,63.999989 0 0 1 96,-63.99999 96,63.999989 0 0 1 96,63.99999 z"
       id="path4227-3" />
    <path
       inkscape:connector-curvature="0"
       style="fill:#3daa8e;fill-opacity:1;stroke:#86d2b1;stroke-width:20;stroke-linecap:round;stroke-linejoin:round;stroke-miterlimit:4;stroke-dasharray:none;stroke-dashoffset:0;stroke-opacity:1"
       d="m 480,1084.3622 a 96,63.999989 0 0 1 -96,64 96,63.999989 0 0 1 -96,-64 96,63.999989 0 0 1 96,-64 96,63.999989 0 0 1 96,64 z"
       id="path4227-05" />
  </g>
</svg>
