# MagicaVoxel @ Ephtracy

# material
mtllib barn.mtl
usemtl palette

# normals
vn -1 0 0
vn 1 0 0
vn 0 0 1
vn 0 0 -1
vn 0 -1 0
vn 0 1 0

# texcoords
vt 0.947266 0.5
vt 0.951172 0.5
vt 0.955078 0.5
vt 0.970703 0.5
vt 0.974609 0.5
vt 0.990234 0.5

# verts
v -4 0 4
v -4 0 3
v -4 0 2
v -4 0 1
v -4 0 -1
v -4 0 -2
v -4 0 -3
v -4 0 -4
v -4 2 1
v -4 2 -1
v -4 3 2
v -4 3 -2
v -4 4 4
v -4 4 3
v -4 4 2
v -4 4 -2
v -4 4 -3
v -4 4 -4
v -4 5 3
v -4 5 2
v -4 5 1
v -4 5 -1
v -4 5 -2
v -4 5 -3
v -4 6 2
v -4 6 1
v -4 6 -1
v -4 6 -2
v -4 7 1
v -4 7 -1
v 4 0 4
v 4 0 3
v 4 0 2
v 4 0 1
v 4 0 -1
v 4 0 -2
v 4 0 -3
v 4 0 -4
v 4 2 1
v 4 2 -1
v 4 3 2
v 4 3 -2
v 4 4 4
v 4 4 3
v 4 4 2
v 4 4 -2
v 4 4 -3
v 4 4 -4
v 4 5 3
v 4 5 2
v 4 5 1
v 4 5 -1
v 4 5 -2
v 4 5 -3
v 4 6 2
v 4 6 1
v 4 6 -1
v 4 6 -2
v 4 7 1
v 4 7 -1
v -4 0 4
v -4 4 4
v -3 0 4
v -3 2 4
v -3 3 4
v -3 4 4
v 3 0 4
v 3 2 4
v 3 3 4
v 3 4 4
v 4 0 4
v 4 4 4
v -4 4 3
v -4 5 3
v -3 4 3
v -3 5 3
v 3 4 3
v 3 5 3
v 4 4 3
v 4 5 3
v -4 5 2
v -4 6 2
v -3 5 2
v -3 6 2
v 3 5 2
v 3 6 2
v 4 5 2
v 4 6 2
v -4 6 1
v -4 7 1
v -3 6 1
v -3 7 1
v 3 6 1
v 3 7 1
v 4 6 1
v 4 7 1
v -4 6 -1
v -4 7 -1
v -3 6 -1
v -3 7 -1
v 3 6 -1
v 3 7 -1
v 4 6 -1
v 4 7 -1
v -4 5 -2
v -4 6 -2
v -3 5 -2
v -3 6 -2
v 3 5 -2
v 3 6 -2
v 4 5 -2
v 4 6 -2
v -4 4 -3
v -4 5 -3
v -3 4 -3
v -3 5 -3
v 3 4 -3
v 3 5 -3
v 4 4 -3
v 4 5 -3
v -4 0 -4
v -4 4 -4
v -3 0 -4
v -3 2 -4
v -3 3 -4
v -3 4 -4
v 3 0 -4
v 3 2 -4
v 3 3 -4
v 3 4 -4
v 4 0 -4
v 4 4 -4
v -4 0 4
v -3 0 4
v 3 0 4
v 4 0 4
v -4 0 3
v -3 0 3
v 3 0 3
v 4 0 3
v -4 0 2
v -3 0 2
v 3 0 2
v 4 0 2
v -4 0 1
v -3 0 1
v 3 0 1
v 4 0 1
v -4 0 -1
v -3 0 -1
v 3 0 -1
v 4 0 -1
v -4 0 -2
v -3 0 -2
v 3 0 -2
v 4 0 -2
v -4 0 -3
v -3 0 -3
v 3 0 -3
v 4 0 -3
v -4 0 -4
v -3 0 -4
v 3 0 -4
v 4 0 -4
v -4 4 4
v -3 4 4
v 3 4 4
v 4 4 4
v -4 4 3
v -3 4 3
v 3 4 3
v 4 4 3
v -4 4 -3
v -3 4 -3
v 3 4 -3
v 4 4 -3
v -4 4 -4
v -3 4 -4
v 3 4 -4
v 4 4 -4
v -4 5 3
v -3 5 3
v 3 5 3
v 4 5 3
v -4 5 2
v -3 5 2
v 3 5 2
v 4 5 2
v -4 5 -2
v -3 5 -2
v 3 5 -2
v 4 5 -2
v -4 5 -3
v -3 5 -3
v 3 5 -3
v 4 5 -3
v -4 6 2
v -3 6 2
v 3 6 2
v 4 6 2
v -4 6 1
v -3 6 1
v 3 6 1
v 4 6 1
v -4 6 -1
v -3 6 -1
v 3 6 -1
v 4 6 -1
v -4 6 -2
v -3 6 -2
v 3 6 -2
v 4 6 -2
v -4 7 1
v -3 7 1
v 3 7 1
v 4 7 1
v -4 7 -1
v -3 7 -1
v 3 7 -1
v 4 7 -1

# faces
f 9/4/1 4/4/1 3/4/1
f 9/1/1 5/1/1 4/1/1
f 10/4/1 6/4/1 5/4/1
f 10/1/1 5/1/1 9/1/1
f 11/2/1 3/2/1 2/2/1
f 11/4/1 9/4/1 3/4/1
f 11/4/1 10/4/1 9/4/1
f 12/4/1 6/4/1 10/4/1
f 12/4/1 10/4/1 11/4/1
f 12/2/1 7/2/1 6/2/1
f 13/5/1 2/5/1 1/5/1
f 14/2/1 11/2/1 2/2/1
f 14/5/1 2/5/1 13/5/1
f 14/2/1 12/2/1 11/2/1
f 15/2/1 12/2/1 14/2/1
f 16/2/1 7/2/1 12/2/1
f 16/2/1 12/2/1 15/2/1
f 17/5/1 8/5/1 7/5/1
f 17/2/1 7/2/1 16/2/1
f 18/5/1 8/5/1 17/5/1
f 19/5/1 15/5/1 14/5/1
f 20/2/1 16/2/1 15/2/1
f 20/5/1 15/5/1 19/5/1
f 21/2/1 16/2/1 20/2/1
f 22/2/1 16/2/1 21/2/1
f 23/5/1 17/5/1 16/5/1
f 23/2/1 16/2/1 22/2/1
f 24/5/1 17/5/1 23/5/1
f 25/5/1 21/5/1 20/5/1
f 26/2/1 22/2/1 21/2/1
f 26/5/1 21/5/1 25/5/1
f 27/5/1 23/5/1 22/5/1
f 27/2/1 22/2/1 26/2/1
f 28/5/1 23/5/1 27/5/1
f 29/5/1 27/5/1 26/5/1
f 30/5/1 27/5/1 29/5/1
f 33/5/2 34/5/2 39/5/2
f 34/1/2 35/1/2 39/1/2
f 35/5/2 36/5/2 40/5/2
f 39/1/2 35/1/2 40/1/2
f 32/2/2 33/2/2 41/2/2
f 33/5/2 39/5/2 41/5/2
f 39/5/2 40/5/2 41/5/2
f 40/5/2 36/5/2 42/5/2
f 41/5/2 40/5/2 42/5/2
f 36/2/2 37/2/2 42/2/2
f 31/5/2 32/5/2 43/5/2
f 32/2/2 41/2/2 44/2/2
f 43/5/2 32/5/2 44/5/2
f 41/2/2 42/2/2 44/2/2
f 44/2/2 42/2/2 45/2/2
f 42/2/2 37/2/2 46/2/2
f 45/2/2 42/2/2 46/2/2
f 37/5/2 38/5/2 47/5/2
f 46/2/2 37/2/2 47/2/2
f 47/5/2 38/5/2 48/5/2
f 44/5/2 45/5/2 49/5/2
f 45/2/2 46/2/2 50/2/2
f 49/5/2 45/5/2 50/5/2
f 50/2/2 46/2/2 51/2/2
f 51/2/2 46/2/2 52/2/2
f 46/5/2 47/5/2 53/5/2
f 52/2/2 46/2/2 53/2/2
f 53/5/2 47/5/2 54/5/2
f 50/5/2 51/5/2 55/5/2
f 51/2/2 52/2/2 56/2/2
f 55/5/2 51/5/2 56/5/2
f 52/5/2 53/5/2 57/5/2
f 56/2/2 52/2/2 57/2/2
f 57/5/2 53/5/2 58/5/2
f 56/5/2 57/5/2 59/5/2
f 59/5/2 57/5/2 60/5/2
f 63/5/3 62/5/3 61/5/3
f 64/5/3 62/5/3 63/5/3
f 65/5/3 62/5/3 64/5/3
f 66/5/3 62/5/3 65/5/3
f 67/2/3 64/2/3 63/2/3
f 68/3/3 65/3/3 64/3/3
f 68/2/3 64/2/3 67/2/3
f 69/6/3 66/6/3 65/6/3
f 69/3/3 65/3/3 68/3/3
f 70/6/3 66/6/3 69/6/3
f 71/5/3 68/5/3 67/5/3
f 71/5/3 69/5/3 68/5/3
f 71/5/3 70/5/3 69/5/3
f 72/5/3 70/5/3 71/5/3
f 75/5/3 74/5/3 73/5/3
f 76/5/3 74/5/3 75/5/3
f 77/6/3 76/6/3 75/6/3
f 78/6/3 76/6/3 77/6/3
f 79/5/3 78/5/3 77/5/3
f 80/5/3 78/5/3 79/5/3
f 83/5/3 82/5/3 81/5/3
f 84/5/3 82/5/3 83/5/3
f 85/6/3 84/6/3 83/6/3
f 86/6/3 84/6/3 85/6/3
f 87/5/3 86/5/3 85/5/3
f 88/5/3 86/5/3 87/5/3
f 91/5/3 90/5/3 89/5/3
f 92/5/3 90/5/3 91/5/3
f 93/6/3 92/6/3 91/6/3
f 94/6/3 92/6/3 93/6/3
f 95/5/3 94/5/3 93/5/3
f 96/5/3 94/5/3 95/5/3
f 97/5/4 98/5/4 99/5/4
f 99/5/4 98/5/4 100/5/4
f 99/6/4 100/6/4 101/6/4
f 101/6/4 100/6/4 102/6/4
f 101/5/4 102/5/4 103/5/4
f 103/5/4 102/5/4 104/5/4
f 105/5/4 106/5/4 107/5/4
f 107/5/4 106/5/4 108/5/4
f 107/6/4 108/6/4 109/6/4
f 109/6/4 108/6/4 110/6/4
f 109/5/4 110/5/4 111/5/4
f 111/5/4 110/5/4 112/5/4
f 113/5/4 114/5/4 115/5/4
f 115/5/4 114/5/4 116/5/4
f 115/6/4 116/6/4 117/6/4
f 117/6/4 116/6/4 118/6/4
f 117/5/4 118/5/4 119/5/4
f 119/5/4 118/5/4 120/5/4
f 121/5/4 122/5/4 123/5/4
f 123/5/4 122/5/4 124/5/4
f 124/5/4 122/5/4 125/5/4
f 125/5/4 122/5/4 126/5/4
f 123/2/4 124/2/4 127/2/4
f 124/3/4 125/3/4 128/3/4
f 127/2/4 124/2/4 128/2/4
f 125/6/4 126/6/4 129/6/4
f 128/3/4 125/3/4 129/3/4
f 129/6/4 126/6/4 130/6/4
f 127/5/4 128/5/4 131/5/4
f 128/5/4 129/5/4 131/5/4
f 129/5/4 130/5/4 131/5/4
f 131/5/4 130/5/4 132/5/4
f 137/5/5 134/5/5 133/5/5
f 138/2/5 135/2/5 134/2/5
f 138/5/5 134/5/5 137/5/5
f 139/5/5 136/5/5 135/5/5
f 139/2/5 135/2/5 138/2/5
f 140/5/5 136/5/5 139/5/5
f 141/2/5 138/2/5 137/2/5
f 141/2/5 139/2/5 138/2/5
f 141/2/5 140/2/5 139/2/5
f 142/2/5 140/2/5 141/2/5
f 143/2/5 140/2/5 142/2/5
f 144/2/5 140/2/5 143/2/5
f 145/4/5 142/4/5 141/4/5
f 146/2/5 143/2/5 142/2/5
f 146/4/5 142/4/5 145/4/5
f 147/5/5 144/5/5 143/5/5
f 147/2/5 143/2/5 146/2/5
f 148/5/5 144/5/5 147/5/5
f 149/1/5 146/1/5 145/1/5
f 150/2/5 147/2/5 146/2/5
f 150/1/5 146/1/5 149/1/5
f 151/1/5 148/1/5 147/1/5
f 151/2/5 147/2/5 150/2/5
f 152/1/5 148/1/5 151/1/5
f 153/4/5 150/4/5 149/4/5
f 154/2/5 151/2/5 150/2/5
f 154/4/5 150/4/5 153/4/5
f 155/5/5 152/5/5 151/5/5
f 155/2/5 151/2/5 154/2/5
f 156/5/5 152/5/5 155/5/5
f 157/2/5 154/2/5 153/2/5
f 157/2/5 155/2/5 154/2/5
f 157/2/5 156/2/5 155/2/5
f 158/2/5 156/2/5 157/2/5
f 159/2/5 156/2/5 158/2/5
f 160/2/5 156/2/5 159/2/5
f 161/5/5 158/5/5 157/5/5
f 162/2/5 159/2/5 158/2/5
f 162/5/5 158/5/5 161/5/5
f 163/5/5 160/5/5 159/5/5
f 163/2/5 159/2/5 162/2/5
f 164/5/5 160/5/5 163/5/5
f 165/5/6 166/5/6 169/5/6
f 166/6/6 167/6/6 170/6/6
f 169/5/6 166/5/6 170/5/6
f 167/5/6 168/5/6 171/5/6
f 170/6/6 167/6/6 171/6/6
f 171/5/6 168/5/6 172/5/6
f 173/5/6 174/5/6 177/5/6
f 174/6/6 175/6/6 178/6/6
f 177/5/6 174/5/6 178/5/6
f 175/5/6 176/5/6 179/5/6
f 178/6/6 175/6/6 179/6/6
f 179/5/6 176/5/6 180/5/6
f 181/5/6 182/5/6 185/5/6
f 182/6/6 183/6/6 186/6/6
f 185/5/6 182/5/6 186/5/6
f 183/5/6 184/5/6 187/5/6
f 186/6/6 183/6/6 187/6/6
f 187/5/6 184/5/6 188/5/6
f 189/5/6 190/5/6 193/5/6
f 190/6/6 191/6/6 194/6/6
f 193/5/6 190/5/6 194/5/6
f 191/5/6 192/5/6 195/5/6
f 194/6/6 191/6/6 195/6/6
f 195/5/6 192/5/6 196/5/6
f 197/5/6 198/5/6 201/5/6
f 198/6/6 199/6/6 202/6/6
f 201/5/6 198/5/6 202/5/6
f 199/5/6 200/5/6 203/5/6
f 202/6/6 199/6/6 203/6/6
f 203/5/6 200/5/6 204/5/6
f 205/5/6 206/5/6 209/5/6
f 206/6/6 207/6/6 210/6/6
f 209/5/6 206/5/6 210/5/6
f 207/5/6 208/5/6 211/5/6
f 210/6/6 207/6/6 211/6/6
f 211/5/6 208/5/6 212/5/6
f 213/5/6 214/5/6 217/5/6
f 214/6/6 215/6/6 218/6/6
f 217/5/6 214/5/6 218/5/6
f 215/5/6 216/5/6 219/5/6
f 218/6/6 215/6/6 219/6/6
f 219/5/6 216/5/6 220/5/6
