# MagicaVoxel @ Ephtracy

# material
mtllib human.mtl
usemtl palette

# normals
vn -1 0 0
vn 1 0 0
vn 0 0 1
vn 0 0 -1
vn 0 -1 0
vn 0 1 0

# texcoords
vt 0.822266 0.5
vt 0.826172 0.5
vt 0.884766 0.5
vt 0.908203 0.5
vt 0.927734 0.5
vt 0.982422 0.5

# verts
v -4 4 1
v -4 4 -1
v -4 6 1
v -4 6 -1
v -4 9 1
v -4 9 -1
v -3 0 3
v -3 0 -0
v -3 1 3
v -3 1 2
v -3 1 -0
v -3 1 -2
v -3 2 2
v -3 2 -0
v -3 2 -1
v -3 2 -2
v -3 4 1
v -3 4 -1
v -3 5 2
v -3 5 1
v -3 6 2
v -3 6 1
v -3 6 -1
v -3 6 -2
v -3 9 2
v -3 9 1
v -3 9 -1
v -3 9 -2
v -3 10 1
v -3 10 -1
v -3 12 3
v -3 12 -3
v -3 13 3
v -3 13 -3
v -2 2 -1
v -2 2 -2
v -2 5 -1
v -2 5 -2
v -2 6 -1
v -2 6 -2
v -2 9 2
v -2 9 1
v -2 9 -1
v -2 9 -2
v -2 10 2
v -2 10 1
v -2 10 -1
v -2 10 -2
v -2 12 2
v -2 12 -2
v -2 13 1
v -2 13 -1
v -2 14 1
v -2 14 -1
v -1 13 2
v -1 13 1
v -1 13 -1
v -1 13 -2
v -1 14 2
v -1 14 1
v -1 14 -1
v -1 14 -2
v -1 15 1
v -1 15 -1
v 1 0 3
v 1 0 -0
v 1 1 3
v 1 1 2
v 1 1 1
v 1 1 -0
v 1 2 1
v 1 2 -0
v 2 1 -0
v 2 1 -1
v 2 2 -0
v 2 2 -1
v -2 1 -0
v -2 1 -1
v -2 2 -0
v -2 2 -1
v -1 0 3
v -1 0 -0
v -1 1 3
v -1 1 2
v -1 1 1
v -1 1 -0
v -1 2 1
v -1 2 -0
v 1 13 2
v 1 13 1
v 1 13 -1
v 1 13 -2
v 1 14 2
v 1 14 1
v 1 14 -1
v 1 14 -2
v 1 15 1
v 1 15 -1
v 2 2 -1
v 2 2 -2
v 2 5 -1
v 2 5 -2
v 2 6 -1
v 2 6 -2
v 2 9 2
v 2 9 1
v 2 9 -1
v 2 9 -2
v 2 10 2
v 2 10 1
v 2 10 -1
v 2 10 -2
v 2 12 2
v 2 12 -2
v 2 13 1
v 2 13 -1
v 2 14 1
v 2 14 -1
v 3 0 3
v 3 0 -0
v 3 1 3
v 3 1 2
v 3 1 -0
v 3 1 -2
v 3 2 2
v 3 2 -0
v 3 2 -1
v 3 2 -2
v 3 4 1
v 3 4 -1
v 3 5 2
v 3 5 1
v 3 6 2
v 3 6 1
v 3 6 -1
v 3 6 -2
v 3 9 2
v 3 9 1
v 3 9 -1
v 3 9 -2
v 3 10 1
v 3 10 -1
v 3 12 3
v 3 12 -3
v 3 13 3
v 3 13 -3
v 4 4 1
v 4 4 -1
v 4 6 1
v 4 6 -1
v 4 9 1
v 4 9 -1
v -3 0 3
v -3 1 3
v -3 12 3
v -3 13 3
v -1 0 3
v -1 1 3
v 1 0 3
v 1 1 3
v 3 0 3
v 3 1 3
v 3 12 3
v 3 13 3
v -3 1 2
v -3 2 2
v -3 5 2
v -3 6 2
v -3 9 2
v -2 9 2
v -2 10 2
v -2 12 2
v -1 1 2
v -1 2 2
v -1 5 2
v -1 6 2
v -1 13 2
v -1 14 2
v 1 1 2
v 1 2 2
v 1 5 2
v 1 6 2
v 1 13 2
v 1 14 2
v 2 9 2
v 2 10 2
v 2 12 2
v 3 1 2
v 3 2 2
v 3 5 2
v 3 6 2
v 3 9 2
v -4 4 1
v -4 6 1
v -4 9 1
v -3 4 1
v -3 5 1
v -3 6 1
v -3 9 1
v -3 10 1
v -2 9 1
v -2 10 1
v -2 13 1
v -2 14 1
v -1 13 1
v -1 14 1
v -1 15 1
v 1 13 1
v 1 14 1
v 1 15 1
v 2 9 1
v 2 10 1
v 2 13 1
v 2 14 1
v 3 4 1
v 3 5 1
v 3 6 1
v 3 9 1
v 3 10 1
v 4 4 1
v 4 6 1
v 4 9 1
v -2 1 -1
v -2 2 -1
v 2 1 -1
v 2 2 -1
v -1 1 1
v -1 2 1
v 1 1 1
v 1 2 1
v -3 0 -0
v -3 1 -0
v -2 1 -0
v -2 2 -0
v -1 0 -0
v -1 1 -0
v -1 2 -0
v 1 0 -0
v 1 1 -0
v 1 2 -0
v 2 1 -0
v 2 2 -0
v 3 0 -0
v 3 1 -0
v -4 4 -1
v -4 6 -1
v -4 9 -1
v -3 2 -1
v -3 4 -1
v -3 5 -1
v -3 6 -1
v -3 9 -1
v -3 10 -1
v -2 2 -1
v -2 5 -1
v -2 6 -1
v -2 9 -1
v -2 10 -1
v -2 13 -1
v -2 14 -1
v -1 13 -1
v -1 14 -1
v -1 15 -1
v 1 13 -1
v 1 14 -1
v 1 15 -1
v 2 2 -1
v 2 5 -1
v 2 6 -1
v 2 9 -1
v 2 10 -1
v 2 13 -1
v 2 14 -1
v 3 2 -1
v 3 4 -1
v 3 5 -1
v 3 6 -1
v 3 9 -1
v 3 10 -1
v 4 4 -1
v 4 6 -1
v 4 9 -1
v -3 1 -2
v -3 2 -2
v -3 6 -2
v -3 9 -2
v -2 2 -2
v -2 5 -2
v -2 6 -2
v -2 9 -2
v -2 10 -2
v -2 12 -2
v -1 13 -2
v -1 14 -2
v 1 13 -2
v 1 14 -2
v 2 2 -2
v 2 5 -2
v 2 6 -2
v 2 9 -2
v 2 10 -2
v 2 12 -2
v 3 1 -2
v 3 2 -2
v 3 6 -2
v 3 9 -2
v -3 12 -3
v -3 13 -3
v 3 12 -3
v 3 13 -3
v -3 0 3
v -1 0 3
v 1 0 3
v 3 0 3
v -3 0 -0
v -1 0 -0
v 1 0 -0
v 3 0 -0
v -1 1 2
v 1 1 2
v -1 1 1
v 1 1 1
v -3 1 -0
v -2 1 -0
v 2 1 -0
v 3 1 -0
v -2 1 -1
v 2 1 -1
v -3 1 -2
v 3 1 -2
v -1 2 1
v 1 2 1
v -2 2 -0
v -1 2 -0
v 1 2 -0
v 2 2 -0
v -2 2 -1
v 2 2 -1
v -4 4 1
v -3 4 1
v 3 4 1
v 4 4 1
v -4 4 -1
v -3 4 -1
v 3 4 -1
v 4 4 -1
v -3 6 -1
v -2 6 -1
v 2 6 -1
v 3 6 -1
v -3 6 -2
v -2 6 -2
v 2 6 -2
v 3 6 -2
v -3 12 3
v 3 12 3
v -2 12 2
v 2 12 2
v -2 12 -2
v 2 12 -2
v -3 12 -3
v 3 12 -3
v -3 1 3
v -1 1 3
v 1 1 3
v 3 1 3
v -3 1 2
v -1 1 2
v 1 1 2
v 3 1 2
v -3 2 -1
v -2 2 -1
v 2 2 -1
v 3 2 -1
v -3 2 -2
v -2 2 -2
v 2 2 -2
v 3 2 -2
v -3 9 2
v -2 9 2
v 2 9 2
v 3 9 2
v -4 9 1
v -3 9 1
v -2 9 1
v 2 9 1
v 3 9 1
v 4 9 1
v -4 9 -1
v -3 9 -1
v -2 9 -1
v 2 9 -1
v 3 9 -1
v 4 9 -1
v -3 9 -2
v -2 9 -2
v 2 9 -2
v 3 9 -2
v -3 10 1
v -2 10 1
v 2 10 1
v 3 10 1
v -3 10 -1
v -2 10 -1
v 2 10 -1
v 3 10 -1
v -3 13 3
v 3 13 3
v -1 13 2
v 1 13 2
v -2 13 1
v -1 13 1
v 1 13 1
v 2 13 1
v -2 13 -1
v -1 13 -1
v 1 13 -1
v 2 13 -1
v -1 13 -2
v 1 13 -2
v -3 13 -3
v 3 13 -3
v -1 14 2
v 1 14 2
v -2 14 1
v -1 14 1
v 1 14 1
v 2 14 1
v -2 14 -1
v -1 14 -1
v 1 14 -1
v 2 14 -1
v -1 14 -2
v 1 14 -2
v -1 15 1
v 1 15 1
v -1 15 -1
v 1 15 -1

# faces
f 3/2/1 2/2/1 1/2/1
f 4/2/1 2/2/1 3/2/1
f 5/3/1 4/3/1 3/3/1
f 6/3/1 4/3/1 5/3/1
f 9/5/1 8/5/1 7/5/1
f 10/5/1 8/5/1 9/5/1
f 11/5/1 8/5/1 10/5/1
f 13/5/1 11/5/1 10/5/1
f 14/3/1 12/3/1 11/3/1
f 14/5/1 11/5/1 13/5/1
f 15/3/1 12/3/1 14/3/1
f 16/3/1 12/3/1 15/3/1
f 17/3/1 14/3/1 13/3/1
f 17/3/1 15/3/1 14/3/1
f 18/3/1 15/3/1 17/3/1
f 19/3/1 17/3/1 13/3/1
f 20/3/1 17/3/1 19/3/1
f 21/5/1 20/5/1 19/5/1
f 22/5/1 20/5/1 21/5/1
f 25/3/1 22/3/1 21/3/1
f 26/3/1 22/3/1 25/3/1
f 27/3/1 24/3/1 23/3/1
f 28/3/1 24/3/1 27/3/1
f 29/3/1 27/3/1 26/3/1
f 30/3/1 27/3/1 29/3/1
f 33/1/1 32/1/1 31/1/1
f 34/1/1 32/1/1 33/1/1
f 37/3/1 36/3/1 35/3/1
f 38/3/1 36/3/1 37/3/1
f 39/5/1 38/5/1 37/5/1
f 40/5/1 38/5/1 39/5/1
f 45/3/1 42/3/1 41/3/1
f 46/3/1 42/3/1 45/3/1
f 47/3/1 44/3/1 43/3/1
f 48/3/1 44/3/1 47/3/1
f 49/4/1 46/4/1 45/4/1
f 49/4/1 47/4/1 46/4/1
f 49/4/1 48/4/1 47/4/1
f 50/4/1 48/4/1 49/4/1
f 53/1/1 52/1/1 51/1/1
f 54/1/1 52/1/1 53/1/1
f 59/1/1 56/1/1 55/1/1
f 60/1/1 56/1/1 59/1/1
f 61/1/1 58/1/1 57/1/1
f 62/1/1 58/1/1 61/1/1
f 63/1/1 61/1/1 60/1/1
f 64/1/1 61/1/1 63/1/1
f 67/5/1 66/5/1 65/5/1
f 68/5/1 66/5/1 67/5/1
f 69/5/1 66/5/1 68/5/1
f 70/5/1 66/5/1 69/5/1
f 71/3/1 70/3/1 69/3/1
f 72/3/1 70/3/1 71/3/1
f 75/3/1 74/3/1 73/3/1
f 76/3/1 74/3/1 75/3/1
f 77/3/2 78/3/2 79/3/2
f 79/3/2 78/3/2 80/3/2
f 81/5/2 82/5/2 83/5/2
f 83/5/2 82/5/2 84/5/2
f 84/5/2 82/5/2 85/5/2
f 85/5/2 82/5/2 86/5/2
f 85/3/2 86/3/2 87/3/2
f 87/3/2 86/3/2 88/3/2
f 89/1/2 90/1/2 93/1/2
f 93/1/2 90/1/2 94/1/2
f 91/1/2 92/1/2 95/1/2
f 95/1/2 92/1/2 96/1/2
f 94/1/2 95/1/2 97/1/2
f 97/1/2 95/1/2 98/1/2
f 99/3/2 100/3/2 101/3/2
f 101/3/2 100/3/2 102/3/2
f 101/5/2 102/5/2 103/5/2
f 103/5/2 102/5/2 104/5/2
f 105/3/2 106/3/2 109/3/2
f 109/3/2 106/3/2 110/3/2
f 107/3/2 108/3/2 111/3/2
f 111/3/2 108/3/2 112/3/2
f 109/4/2 110/4/2 113/4/2
f 110/4/2 111/4/2 113/4/2
f 111/4/2 112/4/2 113/4/2
f 113/4/2 112/4/2 114/4/2
f 115/1/2 116/1/2 117/1/2
f 117/1/2 116/1/2 118/1/2
f 119/5/2 120/5/2 121/5/2
f 121/5/2 120/5/2 122/5/2
f 122/5/2 120/5/2 123/5/2
f 122/5/2 123/5/2 125/5/2
f 123/3/2 124/3/2 126/3/2
f 125/5/2 123/5/2 126/5/2
f 126/3/2 124/3/2 127/3/2
f 127/3/2 124/3/2 128/3/2
f 125/3/2 126/3/2 129/3/2
f 126/3/2 127/3/2 129/3/2
f 129/3/2 127/3/2 130/3/2
f 125/3/2 129/3/2 131/3/2
f 131/3/2 129/3/2 132/3/2
f 131/5/2 132/5/2 133/5/2
f 133/5/2 132/5/2 134/5/2
f 133/3/2 134/3/2 137/3/2
f 137/3/2 134/3/2 138/3/2
f 135/3/2 136/3/2 139/3/2
f 139/3/2 136/3/2 140/3/2
f 138/3/2 139/3/2 141/3/2
f 141/3/2 139/3/2 142/3/2
f 143/1/2 144/1/2 145/1/2
f 145/1/2 144/1/2 146/1/2
f 147/2/2 148/2/2 149/2/2
f 149/2/2 148/2/2 150/2/2
f 149/3/2 150/3/2 151/3/2
f 151/3/2 150/3/2 152/3/2
f 157/5/3 154/5/3 153/5/3
f 158/5/3 154/5/3 157/5/3
f 161/5/3 160/5/3 159/5/3
f 162/5/3 160/5/3 161/5/3
f 163/1/3 156/1/3 155/1/3
f 164/1/3 156/1/3 163/1/3
f 170/3/3 169/3/3 168/3/3
f 173/5/3 166/5/3 165/5/3
f 174/3/3 167/3/3 166/3/3
f 174/5/3 166/5/3 173/5/3
f 175/5/3 168/5/3 167/5/3
f 175/3/3 167/3/3 174/3/3
f 176/3/3 170/3/3 168/3/3
f 176/5/3 168/5/3 175/5/3
f 176/3/3 171/3/3 170/3/3
f 179/3/3 174/3/3 173/3/3
f 179/3/3 175/3/3 174/3/3
f 180/3/3 175/3/3 179/3/3
f 181/6/3 176/6/3 175/6/3
f 181/3/3 175/3/3 180/3/3
f 182/3/3 171/3/3 176/3/3
f 182/6/3 176/6/3 181/6/3
f 183/1/3 178/1/3 177/1/3
f 184/1/3 178/1/3 183/1/3
f 185/3/3 171/3/3 182/3/3
f 186/4/3 172/4/3 171/4/3
f 186/3/3 171/3/3 185/3/3
f 187/4/3 172/4/3 186/4/3
f 188/5/3 180/5/3 179/5/3
f 189/3/3 181/3/3 180/3/3
f 189/5/3 180/5/3 188/5/3
f 190/5/3 182/5/3 181/5/3
f 190/3/3 181/3/3 189/3/3
f 191/3/3 185/3/3 182/3/3
f 191/5/3 182/5/3 190/5/3
f 192/3/3 185/3/3 191/3/3
f 196/2/3 194/2/3 193/2/3
f 197/2/3 194/2/3 196/2/3
f 198/3/3 195/3/3 194/3/3
f 198/2/3 194/2/3 197/2/3
f 199/3/3 195/3/3 198/3/3
f 201/3/3 200/3/3 199/3/3
f 202/3/3 200/3/3 201/3/3
f 205/1/3 204/1/3 203/1/3
f 206/1/3 204/1/3 205/1/3
f 209/1/3 207/1/3 206/1/3
f 210/1/3 207/1/3 209/1/3
f 213/1/3 209/1/3 208/1/3
f 214/1/3 209/1/3 213/1/3
f 218/3/3 212/3/3 211/3/3
f 219/3/3 212/3/3 218/3/3
f 220/2/3 217/2/3 216/2/3
f 220/2/3 216/2/3 215/2/3
f 221/3/3 218/3/3 217/3/3
f 221/2/3 217/2/3 220/2/3
f 222/3/3 218/3/3 221/3/3
f 225/3/3 224/3/3 223/3/3
f 226/3/3 224/3/3 225/3/3
f 227/3/4 228/3/4 229/3/4
f 229/3/4 228/3/4 230/3/4
f 231/5/4 232/5/4 233/5/4
f 231/5/4 233/5/4 235/5/4
f 233/3/4 234/3/4 236/3/4
f 235/5/4 233/5/4 236/5/4
f 236/3/4 234/3/4 237/3/4
f 238/5/4 239/5/4 241/5/4
f 239/3/4 240/3/4 241/3/4
f 241/3/4 240/3/4 242/3/4
f 238/5/4 241/5/4 243/5/4
f 243/5/4 241/5/4 244/5/4
f 245/2/4 246/2/4 249/2/4
f 249/2/4 246/2/4 250/2/4
f 246/3/4 247/3/4 251/3/4
f 250/2/4 246/2/4 251/2/4
f 251/3/4 247/3/4 252/3/4
f 249/3/4 250/3/4 254/3/4
f 248/3/4 249/3/4 254/3/4
f 250/5/4 251/5/4 255/5/4
f 254/3/4 250/3/4 255/3/4
f 255/5/4 251/5/4 256/5/4
f 252/3/4 253/3/4 257/3/4
f 257/3/4 253/3/4 258/3/4
f 259/1/4 260/1/4 261/1/4
f 261/1/4 260/1/4 262/1/4
f 262/1/4 263/1/4 265/1/4
f 265/1/4 263/1/4 266/1/4
f 264/1/4 265/1/4 272/1/4
f 272/1/4 265/1/4 273/1/4
f 267/3/4 268/3/4 274/3/4
f 274/3/4 268/3/4 275/3/4
f 268/5/4 269/5/4 276/5/4
f 275/3/4 268/3/4 276/3/4
f 276/5/4 269/5/4 277/5/4
f 270/3/4 271/3/4 278/3/4
f 278/3/4 271/3/4 279/3/4
f 276/2/4 277/2/4 280/2/4
f 275/2/4 276/2/4 280/2/4
f 277/3/4 278/3/4 281/3/4
f 280/2/4 277/2/4 281/2/4
f 281/3/4 278/3/4 282/3/4
f 283/3/4 284/3/4 287/3/4
f 285/3/4 286/3/4 289/3/4
f 289/3/4 286/3/4 290/3/4
f 293/1/4 294/1/4 295/1/4
f 295/1/4 294/1/4 296/1/4
f 287/3/4 288/3/4 297/3/4
f 283/3/4 287/3/4 297/3/4
f 288/5/4 289/5/4 298/5/4
f 297/3/4 288/3/4 298/3/4
f 289/3/4 290/3/4 299/3/4
f 298/5/4 289/5/4 299/5/4
f 290/3/4 291/3/4 299/3/4
f 299/3/4 291/3/4 300/3/4
f 291/4/4 292/4/4 301/4/4
f 300/3/4 291/3/4 301/3/4
f 301/4/4 292/4/4 302/4/4
f 283/3/4 297/3/4 303/3/4
f 303/3/4 297/3/4 304/3/4
f 299/3/4 300/3/4 305/3/4
f 305/3/4 300/3/4 306/3/4
f 307/1/4 308/1/4 309/1/4
f 309/1/4 308/1/4 310/1/4
f 315/5/5 312/5/5 311/5/5
f 316/5/5 312/5/5 315/5/5
f 317/5/5 314/5/5 313/5/5
f 318/5/5 314/5/5 317/5/5
f 321/3/5 320/3/5 319/3/5
f 322/3/5 320/3/5 321/3/5
f 327/3/5 324/3/5 323/3/5
f 328/3/5 326/3/5 325/3/5
f 329/3/5 327/3/5 323/3/5
f 329/3/5 328/3/5 327/3/5
f 330/3/5 326/3/5 328/3/5
f 330/3/5 328/3/5 329/3/5
f 334/3/5 332/3/5 331/3/5
f 335/3/5 332/3/5 334/3/5
f 337/3/5 334/3/5 333/3/5
f 337/3/5 336/3/5 335/3/5
f 337/3/5 335/3/5 334/3/5
f 338/3/5 336/3/5 337/3/5
f 343/2/5 340/2/5 339/2/5
f 344/2/5 340/2/5 343/2/5
f 345/2/5 342/2/5 341/2/5
f 346/2/5 342/2/5 345/2/5
f 351/3/5 348/3/5 347/3/5
f 352/3/5 348/3/5 351/3/5
f 353/3/5 350/3/5 349/3/5
f 354/3/5 350/3/5 353/3/5
f 357/1/5 356/1/5 355/1/5
f 358/1/5 356/1/5 357/1/5
f 359/1/5 357/1/5 355/1/5
f 360/1/5 356/1/5 358/1/5
f 361/1/5 359/1/5 355/1/5
f 361/1/5 360/1/5 359/1/5
f 362/1/5 356/1/5 360/1/5
f 362/1/5 360/1/5 361/1/5
f 363/5/6 364/5/6 367/5/6
f 367/5/6 364/5/6 368/5/6
f 365/5/6 366/5/6 369/5/6
f 369/5/6 366/5/6 370/5/6
f 371/3/6 372/3/6 375/3/6
f 375/3/6 372/3/6 376/3/6
f 373/3/6 374/3/6 377/3/6
f 377/3/6 374/3/6 378/3/6
f 379/3/6 380/3/6 384/3/6
f 384/3/6 380/3/6 385/3/6
f 381/3/6 382/3/6 386/3/6
f 386/3/6 382/3/6 387/3/6
f 383/3/6 384/3/6 389/3/6
f 389/3/6 384/3/6 390/3/6
f 387/3/6 388/3/6 393/3/6
f 393/3/6 388/3/6 394/3/6
f 390/3/6 391/3/6 395/3/6
f 395/3/6 391/3/6 396/3/6
f 392/3/6 393/3/6 397/3/6
f 397/3/6 393/3/6 398/3/6
f 399/3/6 400/3/6 403/3/6
f 403/3/6 400/3/6 404/3/6
f 401/3/6 402/3/6 405/3/6
f 405/3/6 402/3/6 406/3/6
f 407/1/6 408/1/6 409/1/6
f 409/1/6 408/1/6 410/1/6
f 407/1/6 409/1/6 411/1/6
f 411/1/6 409/1/6 412/1/6
f 410/1/6 408/1/6 413/1/6
f 413/1/6 408/1/6 414/1/6
f 407/1/6 411/1/6 415/1/6
f 414/1/6 408/1/6 418/1/6
f 415/1/6 416/1/6 419/1/6
f 417/1/6 418/1/6 420/1/6
f 415/1/6 419/1/6 421/1/6
f 419/1/6 420/1/6 421/1/6
f 407/1/6 415/1/6 421/1/6
f 420/1/6 418/1/6 422/1/6
f 421/1/6 420/1/6 422/1/6
f 418/1/6 408/1/6 422/1/6
f 423/1/6 424/1/6 426/1/6
f 426/1/6 424/1/6 427/1/6
f 425/1/6 426/1/6 429/1/6
f 429/1/6 426/1/6 430/1/6
f 427/1/6 428/1/6 431/1/6
f 431/1/6 428/1/6 432/1/6
f 430/1/6 431/1/6 433/1/6
f 433/1/6 431/1/6 434/1/6
f 435/1/6 436/1/6 437/1/6
f 437/1/6 436/1/6 438/1/6
