# MagicaVoxel @ Ephtracy

# material
mtllib monk.mtl
usemtl palette

# normals
vn -1 0 0
vn 1 0 0
vn 0 0 1
vn 0 0 -1
vn 0 -1 0
vn 0 1 0

# texcoords
vt 0.376953 0.5
vt 0.384766 0.5
vt 0.396484 0.5
vt 0.400391 0.5
vt 0.404297 0.5
vt 0.908203 0.5

# verts
v -3.5 3 2.5
v -3.5 3 -2.5
v -3.5 4 2.5
v -3.5 4 -2.5
v -2.5 3 3.5
v -2.5 3 2.5
v -2.5 3 -2.5
v -2.5 3 -3.5
v -2.5 4 3.5
v -2.5 4 2.5
v -2.5 4 -2.5
v -2.5 4 -3.5
v -1.5 2 0.5
v -1.5 2 -0.5
v -1.5 3 0.5
v -1.5 3 -0.5
v -1.5 4 2.5
v -1.5 4 -2.5
v -1.5 6 2.5
v -1.5 6 1.5
v -1.5 6 -1.5
v -1.5 6 -2.5
v -1.5 7 1.5
v -1.5 7 -1.5
v -1.5 8 2.5
v -1.5 8 1.5
v -1.5 8 -1.5
v -1.5 8 -2.5
v -1.5 9 2.5
v -1.5 9 1.5
v -1.5 9 -1.5
v -1.5 9 -2.5
v -1.5 10 1.5
v -1.5 10 -1.5
v -1.5 12 1.5
v -1.5 12 -1.5
v -1.5 13 1.5
v -1.5 13 -1.5
v -0.5 0 0.5
v -0.5 0 -0.5
v -0.5 2 1.5
v -0.5 2 0.5
v -0.5 2 -0.5
v -0.5 2 -1.5
v -0.5 3 1.5
v -0.5 3 0.5
v -0.5 3 -0.5
v -0.5 3 -1.5
v -0.5 6 2.5
v -0.5 6 1.5
v -0.5 6 -1.5
v -0.5 6 -2.5
v -0.5 7 2.5
v -0.5 7 1.5
v -0.5 7 -1.5
v -0.5 7 -2.5
v -0.5 8 3.5
v -0.5 8 2.5
v -0.5 8 1.5
v -0.5 8 -1.5
v -0.5 8 -2.5
v -0.5 8 -3.5
v -0.5 9 5.5
v -0.5 9 4.5
v -0.5 9 3.5
v -0.5 9 2.5
v -0.5 9 1.5
v -0.5 9 -1.5
v -0.5 9 -2.5
v -0.5 9 -3.5
v -0.5 9 -4.5
v -0.5 9 -5.5
v -0.5 10 5.5
v -0.5 10 4.5
v -0.5 10 1.5
v -0.5 10 -1.5
v -0.5 10 -4.5
v -0.5 10 -5.5
v -0.5 13 0.5
v -0.5 13 -0.5
v -0.5 14 0.5
v -0.5 14 -0.5
v 0.5 11 5.5
v 0.5 11 4.5
v 0.5 11 -4.5
v 0.5 11 -5.5
v 0.5 12 5.5
v 0.5 12 4.5
v 0.5 12 -4.5
v 0.5 12 -5.5
v 0.5 0 0.5
v 0.5 0 -0.5
v 0.5 2 1.5
v 0.5 2 0.5
v 0.5 2 -0.5
v 0.5 2 -1.5
v 0.5 3 1.5
v 0.5 3 0.5
v 0.5 3 -0.5
v 0.5 3 -1.5
v 0.5 6 2.5
v 0.5 6 1.5
v 0.5 6 -1.5
v 0.5 6 -2.5
v 0.5 7 2.5
v 0.5 7 1.5
v 0.5 7 -1.5
v 0.5 7 -2.5
v 0.5 8 3.5
v 0.5 8 2.5
v 0.5 8 1.5
v 0.5 8 -1.5
v 0.5 8 -2.5
v 0.5 8 -3.5
v 0.5 9 3.5
v 0.5 9 2.5
v 0.5 9 -2.5
v 0.5 9 -3.5
v 0.5 13 0.5
v 0.5 13 -0.5
v 0.5 14 0.5
v 0.5 14 -0.5
v 1.5 2 0.5
v 1.5 2 -0.5
v 1.5 3 0.5
v 1.5 3 -0.5
v 1.5 5 2.5
v 1.5 5 1.5
v 1.5 5 -1.5
v 1.5 5 -2.5
v 1.5 6 2.5
v 1.5 6 1.5
v 1.5 6 -1.5
v 1.5 6 -2.5
v 1.5 7 1.5
v 1.5 7 -1.5
v 1.5 8 2.5
v 1.5 8 1.5
v 1.5 8 -1.5
v 1.5 8 -2.5
v 1.5 9 5.5
v 1.5 9 4.5
v 1.5 9 2.5
v 1.5 9 -2.5
v 1.5 9 -4.5
v 1.5 9 -5.5
v 1.5 10 5.5
v 1.5 10 4.5
v 1.5 10 1.5
v 1.5 10 -1.5
v 1.5 10 -4.5
v 1.5 10 -5.5
v 1.5 11 5.5
v 1.5 11 4.5
v 1.5 11 -4.5
v 1.5 11 -5.5
v 1.5 12 5.5
v 1.5 12 4.5
v 1.5 12 1.5
v 1.5 12 -1.5
v 1.5 12 -4.5
v 1.5 12 -5.5
v 1.5 13 1.5
v 1.5 13 -1.5
v 2.5 3 3.5
v 2.5 3 2.5
v 2.5 3 -2.5
v 2.5 3 -3.5
v 2.5 4 3.5
v 2.5 4 2.5
v 2.5 4 0.5
v 2.5 4 -0.5
v 2.5 4 -2.5
v 2.5 4 -3.5
v 2.5 5 1.5
v 2.5 5 0.5
v 2.5 5 -0.5
v 2.5 5 -1.5
v 2.5 6 1.5
v 2.5 6 -1.5
v 3.5 3 2.5
v 3.5 3 -2.5
v 3.5 4 2.5
v 3.5 4 0.5
v 3.5 4 -0.5
v 3.5 4 -2.5
v 3.5 5 2.5
v 3.5 5 0.5
v 3.5 5 -0.5
v 3.5 5 -2.5
v -0.5 9 5.5
v -0.5 10 5.5
v 0.5 11 5.5
v 0.5 12 5.5
v 1.5 9 5.5
v 1.5 10 5.5
v 1.5 11 5.5
v 1.5 12 5.5
v -2.5 3 3.5
v -2.5 4 3.5
v -0.5 8 3.5
v -0.5 9 3.5
v 0.5 8 3.5
v 0.5 9 3.5
v 2.5 3 3.5
v 2.5 4 3.5
v -3.5 3 2.5
v -3.5 4 2.5
v -2.5 3 2.5
v -2.5 4 2.5
v -1.5 4 2.5
v -1.5 6 2.5
v -1.5 8 2.5
v -1.5 9 2.5
v -0.5 6 2.5
v -0.5 7 2.5
v -0.5 8 2.5
v -0.5 9 2.5
v 0.5 6 2.5
v 0.5 7 2.5
v 0.5 8 2.5
v 0.5 9 2.5
v 1.5 5 2.5
v 1.5 6 2.5
v 1.5 8 2.5
v 1.5 9 2.5
v 2.5 3 2.5
v 2.5 4 2.5
v 2.5 5 2.5
v 3.5 3 2.5
v 3.5 4 2.5
v 3.5 5 2.5
v -1.5 6 1.5
v -1.5 7 1.5
v -1.5 8 1.5
v -1.5 9 1.5
v -1.5 10 1.5
v -1.5 12 1.5
v -1.5 13 1.5
v -0.5 2 1.5
v -0.5 3 1.5
v -0.5 6 1.5
v -0.5 7 1.5
v -0.5 8 1.5
v -0.5 9 1.5
v -0.5 10 1.5
v 0.5 2 1.5
v 0.5 3 1.5
v 0.5 6 1.5
v 0.5 7 1.5
v 0.5 8 1.5
v 1.5 5 1.5
v 1.5 6 1.5
v 1.5 7 1.5
v 1.5 8 1.5
v 1.5 10 1.5
v 1.5 12 1.5
v 1.5 13 1.5
v 2.5 5 1.5
v 2.5 6 1.5
v -1.5 2 0.5
v -1.5 3 0.5
v -0.5 0 0.5
v -0.5 2 0.5
v -0.5 3 0.5
v -0.5 13 0.5
v -0.5 14 0.5
v 0.5 0 0.5
v 0.5 2 0.5
v 0.5 3 0.5
v 0.5 13 0.5
v 0.5 14 0.5
v 1.5 2 0.5
v 1.5 3 0.5
v 2.5 4 -0.5
v 2.5 5 -0.5
v 3.5 4 -0.5
v 3.5 5 -0.5
v 0.5 11 -4.5
v 0.5 12 -4.5
v 1.5 11 -4.5
v 1.5 12 -4.5
v 0.5 11 4.5
v 0.5 12 4.5
v 1.5 11 4.5
v 1.5 12 4.5
v 2.5 4 0.5
v 2.5 5 0.5
v 3.5 4 0.5
v 3.5 5 0.5
v -1.5 2 -0.5
v -1.5 3 -0.5
v -0.5 0 -0.5
v -0.5 2 -0.5
v -0.5 3 -0.5
v -0.5 13 -0.5
v -0.5 14 -0.5
v 0.5 0 -0.5
v 0.5 2 -0.5
v 0.5 3 -0.5
v 0.5 13 -0.5
v 0.5 14 -0.5
v 1.5 2 -0.5
v 1.5 3 -0.5
v -1.5 6 -1.5
v -1.5 7 -1.5
v -1.5 8 -1.5
v -1.5 9 -1.5
v -1.5 10 -1.5
v -1.5 12 -1.5
v -1.5 13 -1.5
v -0.5 2 -1.5
v -0.5 3 -1.5
v -0.5 6 -1.5
v -0.5 7 -1.5
v -0.5 8 -1.5
v -0.5 9 -1.5
v -0.5 10 -1.5
v 0.5 2 -1.5
v 0.5 3 -1.5
v 0.5 6 -1.5
v 0.5 7 -1.5
v 0.5 8 -1.5
v 1.5 5 -1.5
v 1.5 6 -1.5
v 1.5 7 -1.5
v 1.5 8 -1.5
v 1.5 10 -1.5
v 1.5 12 -1.5
v 1.5 13 -1.5
v 2.5 5 -1.5
v 2.5 6 -1.5
v -3.5 3 -2.5
v -3.5 4 -2.5
v -2.5 3 -2.5
v -2.5 4 -2.5
v -1.5 4 -2.5
v -1.5 6 -2.5
v -1.5 8 -2.5
v -1.5 9 -2.5
v -0.5 6 -2.5
v -0.5 7 -2.5
v -0.5 8 -2.5
v -0.5 9 -2.5
v 0.5 6 -2.5
v 0.5 7 -2.5
v 0.5 8 -2.5
v 0.5 9 -2.5
v 1.5 5 -2.5
v 1.5 6 -2.5
v 1.5 8 -2.5
v 1.5 9 -2.5
v 2.5 3 -2.5
v 2.5 4 -2.5
v 2.5 5 -2.5
v 3.5 3 -2.5
v 3.5 4 -2.5
v 3.5 5 -2.5
v -2.5 3 -3.5
v -2.5 4 -3.5
v -0.5 8 -3.5
v -0.5 9 -3.5
v 0.5 8 -3.5
v 0.5 9 -3.5
v 2.5 3 -3.5
v 2.5 4 -3.5
v -0.5 9 -5.5
v -0.5 10 -5.5
v 0.5 11 -5.5
v 0.5 12 -5.5
v 1.5 9 -5.5
v 1.5 10 -5.5
v 1.5 11 -5.5
v 1.5 12 -5.5
v -0.5 0 0.5
v 0.5 0 0.5
v -0.5 0 -0.5
v 0.5 0 -0.5
v -0.5 2 1.5
v 0.5 2 1.5
v -1.5 2 0.5
v -0.5 2 0.5
v 0.5 2 0.5
v 1.5 2 0.5
v -1.5 2 -0.5
v -0.5 2 -0.5
v 0.5 2 -0.5
v 1.5 2 -0.5
v -0.5 2 -1.5
v 0.5 2 -1.5
v -2.5 3 3.5
v 2.5 3 3.5
v -3.5 3 2.5
v -2.5 3 2.5
v 2.5 3 2.5
v 3.5 3 2.5
v -1.5 3 1.5
v -0.5 3 1.5
v 0.5 3 1.5
v -1.5 3 0.5
v -0.5 3 0.5
v 0.5 3 0.5
v 1.5 3 0.5
v -1.5 3 -0.5
v -0.5 3 -0.5
v 0.5 3 -0.5
v 1.5 3 -0.5
v -1.5 3 -1.5
v -0.5 3 -1.5
v 0.5 3 -1.5
v -3.5 3 -2.5
v -2.5 3 -2.5
v 2.5 3 -2.5
v 3.5 3 -2.5
v -2.5 3 -3.5
v 2.5 3 -3.5
v -0.5 8 3.5
v 0.5 8 3.5
v -1.5 8 2.5
v -0.5 8 2.5
v 0.5 8 2.5
v 1.5 8 2.5
v -1.5 8 1.5
v -0.5 8 1.5
v 0.5 8 1.5
v 1.5 8 1.5
v -1.5 8 -1.5
v -0.5 8 -1.5
v 0.5 8 -1.5
v 1.5 8 -1.5
v -1.5 8 -2.5
v -0.5 8 -2.5
v 0.5 8 -2.5
v 1.5 8 -2.5
v -0.5 8 -3.5
v 0.5 8 -3.5
v -0.5 9 5.5
v 1.5 9 5.5
v -0.5 9 4.5
v 1.5 9 4.5
v -0.5 9 3.5
v 0.5 9 3.5
v 0.5 9 2.5
v 1.5 9 2.5
v 0.5 9 -2.5
v 1.5 9 -2.5
v -0.5 9 -3.5
v 0.5 9 -3.5
v -0.5 9 -4.5
v 1.5 9 -4.5
v -0.5 9 -5.5
v 1.5 9 -5.5
v 0.5 11 5.5
v 1.5 11 5.5
v 0.5 11 4.5
v 1.5 11 4.5
v 0.5 11 -4.5
v 1.5 11 -4.5
v 0.5 11 -5.5
v 1.5 11 -5.5
v -2.5 4 3.5
v 2.5 4 3.5
v -3.5 4 2.5
v -2.5 4 2.5
v -1.5 4 2.5
v 2.5 4 2.5
v 2.5 4 0.5
v 3.5 4 0.5
v 2.5 4 -0.5
v 3.5 4 -0.5
v -3.5 4 -2.5
v -2.5 4 -2.5
v -1.5 4 -2.5
v 2.5 4 -2.5
v -2.5 4 -3.5
v 2.5 4 -3.5
v 1.5 5 2.5
v 2.5 5 2.5
v 3.5 5 2.5
v 1.5 5 1.5
v 2.5 5 1.5
v 2.5 5 0.5
v 3.5 5 0.5
v 2.5 5 -0.5
v 3.5 5 -0.5
v 1.5 5 -1.5
v 2.5 5 -1.5
v 1.5 5 -2.5
v 2.5 5 -2.5
v 3.5 5 -2.5
v -1.5 6 2.5
v -0.5 6 2.5
v 0.5 6 2.5
v 1.5 6 2.5
v -1.5 6 1.5
v -0.5 6 1.5
v 0.5 6 1.5
v 1.5 6 1.5
v 2.5 6 1.5
v -1.5 6 -1.5
v -0.5 6 -1.5
v 0.5 6 -1.5
v 1.5 6 -1.5
v 2.5 6 -1.5
v -1.5 6 -2.5
v -0.5 6 -2.5
v 0.5 6 -2.5
v 1.5 6 -2.5
v -1.5 9 2.5
v -0.5 9 2.5
v -1.5 9 1.5
v -0.5 9 1.5
v -1.5 9 -1.5
v -0.5 9 -1.5
v -1.5 9 -2.5
v -0.5 9 -2.5
v -0.5 10 5.5
v 1.5 10 5.5
v -0.5 10 4.5
v 1.5 10 4.5
v -0.5 10 1.5
v 1.5 10 1.5
v -0.5 10 -1.5
v 1.5 10 -1.5
v -0.5 10 -4.5
v 1.5 10 -4.5
v -0.5 10 -5.5
v 1.5 10 -5.5
v 0.5 12 5.5
v 1.5 12 5.5
v 0.5 12 4.5
v 1.5 12 4.5
v 0.5 12 -4.5
v 1.5 12 -4.5
v 0.5 12 -5.5
v 1.5 12 -5.5
v -1.5 13 1.5
v 1.5 13 1.5
v -0.5 13 0.5
v 0.5 13 0.5
v -0.5 13 -0.5
v 0.5 13 -0.5
v -1.5 13 -1.5
v 1.5 13 -1.5
v -0.5 14 0.5
v 0.5 14 0.5
v -0.5 14 -0.5
v 0.5 14 -0.5

# faces
f 3/5/1 2/5/1 1/5/1
f 4/5/1 2/5/1 3/5/1
f 9/5/1 6/5/1 5/5/1
f 10/5/1 6/5/1 9/5/1
f 11/5/1 8/5/1 7/5/1
f 12/5/1 8/5/1 11/5/1
f 15/4/1 14/4/1 13/4/1
f 16/4/1 14/4/1 15/4/1
f 19/3/1 18/3/1 17/3/1
f 20/3/1 18/3/1 19/3/1
f 21/3/1 18/3/1 20/3/1
f 22/3/1 18/3/1 21/3/1
f 23/3/1 21/3/1 20/3/1
f 24/3/1 21/3/1 23/3/1
f 26/2/1 24/2/1 23/2/1
f 27/2/1 24/2/1 26/2/1
f 29/2/1 27/2/1 26/2/1
f 29/2/1 28/2/1 27/2/1
f 29/2/1 26/2/1 25/2/1
f 30/2/1 28/2/1 29/2/1
f 31/2/1 28/2/1 30/2/1
f 32/2/1 28/2/1 31/2/1
f 33/2/1 31/2/1 30/2/1
f 34/2/1 31/2/1 33/2/1
f 35/6/1 34/6/1 33/6/1
f 36/6/1 34/6/1 35/6/1
f 37/4/1 36/4/1 35/4/1
f 38/4/1 36/4/1 37/4/1
f 42/5/1 40/5/1 39/5/1
f 43/5/1 40/5/1 42/5/1
f 45/5/1 42/5/1 41/5/1
f 46/5/1 42/5/1 45/5/1
f 47/5/1 44/5/1 43/5/1
f 48/5/1 44/5/1 47/5/1
f 53/3/1 50/3/1 49/3/1
f 54/3/1 50/3/1 53/3/1
f 55/3/1 52/3/1 51/3/1
f 56/3/1 52/3/1 55/3/1
f 58/2/1 54/2/1 53/2/1
f 59/2/1 54/2/1 58/2/1
f 60/2/1 56/2/1 55/2/1
f 61/2/1 56/2/1 60/2/1
f 65/2/1 58/2/1 57/2/1
f 66/2/1 58/2/1 65/2/1
f 69/2/1 62/2/1 61/2/1
f 70/2/1 62/2/1 69/2/1
f 73/6/1 64/6/1 63/6/1
f 74/2/1 67/2/1 66/2/1
f 74/6/1 64/6/1 73/6/1
f 74/2/1 65/2/1 64/2/1
f 74/2/1 66/2/1 65/2/1
f 75/2/1 67/2/1 74/2/1
f 76/2/1 71/2/1 70/2/1
f 76/2/1 70/2/1 69/2/1
f 76/2/1 69/2/1 68/2/1
f 77/6/1 72/6/1 71/6/1
f 77/2/1 71/2/1 76/2/1
f 78/6/1 72/6/1 77/6/1
f 81/1/1 80/1/1 79/1/1
f 82/1/1 80/1/1 81/1/1
f 87/1/1 84/1/1 83/1/1
f 88/1/1 84/1/1 87/1/1
f 89/1/1 86/1/1 85/1/1
f 90/1/1 86/1/1 89/1/1
f 91/5/2 92/5/2 94/5/2
f 94/5/2 92/5/2 95/5/2
f 93/5/2 94/5/2 97/5/2
f 97/5/2 94/5/2 98/5/2
f 95/5/2 96/5/2 99/5/2
f 99/5/2 96/5/2 100/5/2
f 101/3/2 102/3/2 105/3/2
f 105/3/2 102/3/2 106/3/2
f 103/3/2 104/3/2 107/3/2
f 107/3/2 104/3/2 108/3/2
f 105/2/2 106/2/2 110/2/2
f 110/2/2 106/2/2 111/2/2
f 107/2/2 108/2/2 112/2/2
f 112/2/2 108/2/2 113/2/2
f 109/2/2 110/2/2 115/2/2
f 115/2/2 110/2/2 116/2/2
f 113/2/2 114/2/2 117/2/2
f 117/2/2 114/2/2 118/2/2
f 119/1/2 120/1/2 121/1/2
f 121/1/2 120/1/2 122/1/2
f 123/5/2 124/5/2 125/5/2
f 125/5/2 124/5/2 126/5/2
f 127/3/2 128/3/2 131/3/2
f 131/3/2 128/3/2 132/3/2
f 129/3/2 130/3/2 133/3/2
f 133/3/2 130/3/2 134/3/2
f 132/3/2 133/3/2 135/3/2
f 135/3/2 133/3/2 136/3/2
f 135/2/2 136/2/2 138/2/2
f 138/2/2 136/2/2 139/2/2
f 138/2/2 139/2/2 143/2/2
f 137/2/2 138/2/2 143/2/2
f 139/2/2 140/2/2 143/2/2
f 143/2/2 140/2/2 144/2/2
f 141/6/2 142/6/2 147/6/2
f 143/2/2 144/2/2 148/2/2
f 147/6/2 142/6/2 148/6/2
f 142/2/2 143/2/2 148/2/2
f 144/2/2 145/2/2 148/2/2
f 148/2/2 145/2/2 149/2/2
f 149/2/2 145/2/2 150/2/2
f 145/6/2 146/6/2 151/6/2
f 150/2/2 145/2/2 151/2/2
f 151/6/2 146/6/2 152/6/2
f 153/1/2 154/1/2 157/1/2
f 157/1/2 154/1/2 158/1/2
f 149/6/2 150/6/2 159/6/2
f 159/6/2 150/6/2 160/6/2
f 155/1/2 156/1/2 161/1/2
f 161/1/2 156/1/2 162/1/2
f 159/4/2 160/4/2 163/4/2
f 163/4/2 160/4/2 164/4/2
f 165/5/2 166/5/2 169/5/2
f 169/5/2 166/5/2 170/5/2
f 167/5/2 168/5/2 173/5/2
f 173/5/2 168/5/2 174/5/2
f 171/3/2 172/3/2 176/3/2
f 176/3/2 172/3/2 177/3/2
f 175/3/2 176/3/2 179/3/2
f 177/3/2 178/3/2 179/3/2
f 176/3/2 177/3/2 179/3/2
f 179/3/2 178/3/2 180/3/2
f 181/5/2 182/5/2 183/5/2
f 183/5/2 182/5/2 184/5/2
f 184/5/2 182/5/2 185/5/2
f 185/5/2 182/5/2 186/5/2
f 183/6/2 184/6/2 187/6/2
f 187/6/2 184/6/2 188/6/2
f 185/6/2 186/6/2 189/6/2
f 189/6/2 186/6/2 190/6/2
f 195/6/3 192/6/3 191/6/3
f 196/6/3 192/6/3 195/6/3
f 197/1/3 194/1/3 193/1/3
f 198/1/3 194/1/3 197/1/3
f 203/2/3 202/2/3 201/2/3
f 204/2/3 202/2/3 203/2/3
f 205/5/3 200/5/3 199/5/3
f 206/5/3 200/5/3 205/5/3
f 209/5/3 208/5/3 207/5/3
f 210/5/3 208/5/3 209/5/3
f 215/3/3 212/3/3 211/3/3
f 217/2/3 214/2/3 213/2/3
f 218/2/3 214/2/3 217/2/3
f 219/3/3 216/3/3 215/3/3
f 219/3/3 215/3/3 211/3/3
f 220/2/3 217/2/3 216/2/3
f 220/3/3 216/3/3 219/3/3
f 221/2/3 217/2/3 220/2/3
f 223/3/3 219/3/3 211/3/3
f 224/3/3 219/3/3 223/3/3
f 225/2/3 222/2/3 221/2/3
f 226/2/3 222/2/3 225/2/3
f 228/3/3 223/3/3 211/3/3
f 229/3/3 223/3/3 228/3/3
f 230/5/3 228/5/3 227/5/3
f 231/6/3 229/6/3 228/6/3
f 231/5/3 228/5/3 230/5/3
f 232/6/3 229/6/3 231/6/3
f 242/3/3 234/3/3 233/3/3
f 243/2/3 235/2/3 234/2/3
f 243/3/3 234/3/3 242/3/3
f 244/2/3 235/2/3 243/2/3
f 245/2/3 237/2/3 236/2/3
f 246/6/3 238/6/3 237/6/3
f 246/2/3 237/2/3 245/2/3
f 247/5/3 241/5/3 240/5/3
f 248/5/3 241/5/3 247/5/3
f 253/3/3 250/3/3 249/3/3
f 254/2/3 251/2/3 250/2/3
f 254/3/3 250/3/3 253/3/3
f 255/2/3 251/2/3 254/2/3
f 256/6/3 238/6/3 246/6/3
f 257/4/3 239/4/3 238/4/3
f 257/6/3 238/6/3 256/6/3
f 258/4/3 239/4/3 257/4/3
f 259/3/3 253/3/3 252/3/3
f 260/3/3 253/3/3 259/3/3
f 264/4/3 262/4/3 261/4/3
f 265/4/3 262/4/3 264/4/3
f 268/5/3 264/5/3 263/5/3
f 269/5/3 264/5/3 268/5/3
f 271/1/3 267/1/3 266/1/3
f 272/1/3 267/1/3 271/1/3
f 273/5/3 270/5/3 269/5/3
f 274/5/3 270/5/3 273/5/3
f 277/6/3 276/6/3 275/6/3
f 278/6/3 276/6/3 277/6/3
f 281/1/3 280/1/3 279/1/3
f 282/1/3 280/1/3 281/1/3
f 283/1/4 284/1/4 285/1/4
f 285/1/4 284/1/4 286/1/4
f 287/6/4 288/6/4 289/6/4
f 289/6/4 288/6/4 290/6/4
f 291/4/4 292/4/4 294/4/4
f 294/4/4 292/4/4 295/4/4
f 293/5/4 294/5/4 298/5/4
f 298/5/4 294/5/4 299/5/4
f 296/1/4 297/1/4 301/1/4
f 301/1/4 297/1/4 302/1/4
f 299/5/4 300/5/4 303/5/4
f 303/5/4 300/5/4 304/5/4
f 305/3/4 306/3/4 314/3/4
f 306/2/4 307/2/4 315/2/4
f 314/3/4 306/3/4 315/3/4
f 315/2/4 307/2/4 316/2/4
f 308/2/4 309/2/4 317/2/4
f 309/6/4 310/6/4 318/6/4
f 317/2/4 309/2/4 318/2/4
f 312/5/4 313/5/4 319/5/4
f 319/5/4 313/5/4 320/5/4
f 321/3/4 322/3/4 325/3/4
f 322/2/4 323/2/4 326/2/4
f 325/3/4 322/3/4 326/3/4
f 326/2/4 323/2/4 327/2/4
f 318/6/4 310/6/4 328/6/4
f 310/4/4 311/4/4 329/4/4
f 328/6/4 310/6/4 329/6/4
f 329/4/4 311/4/4 330/4/4
f 324/3/4 325/3/4 331/3/4
f 331/3/4 325/3/4 332/3/4
f 333/5/4 334/5/4 335/5/4
f 335/5/4 334/5/4 336/5/4
f 337/3/4 338/3/4 341/3/4
f 339/2/4 340/2/4 343/2/4
f 343/2/4 340/2/4 344/2/4
f 341/3/4 342/3/4 345/3/4
f 337/3/4 341/3/4 345/3/4
f 342/2/4 343/2/4 346/2/4
f 345/3/4 342/3/4 346/3/4
f 346/2/4 343/2/4 347/2/4
f 337/3/4 345/3/4 349/3/4
f 349/3/4 345/3/4 350/3/4
f 347/2/4 348/2/4 351/2/4
f 351/2/4 348/2/4 352/2/4
f 337/3/4 349/3/4 354/3/4
f 354/3/4 349/3/4 355/3/4
f 353/5/4 354/5/4 356/5/4
f 354/6/4 355/6/4 357/6/4
f 356/5/4 354/5/4 357/5/4
f 357/6/4 355/6/4 358/6/4
f 361/2/4 362/2/4 363/2/4
f 363/2/4 362/2/4 364/2/4
f 359/5/4 360/5/4 365/5/4
f 365/5/4 360/5/4 366/5/4
f 367/6/4 368/6/4 371/6/4
f 371/6/4 368/6/4 372/6/4
f 369/1/4 370/1/4 373/1/4
f 373/1/4 370/1/4 374/1/4
f 377/5/5 376/5/5 375/5/5
f 378/5/5 376/5/5 377/5/5
f 382/5/5 380/5/5 379/5/5
f 383/5/5 380/5/5 382/5/5
f 385/4/5 382/4/5 381/4/5
f 386/4/5 382/4/5 385/4/5
f 387/5/5 384/5/5 383/5/5
f 388/5/5 384/5/5 387/5/5
f 389/5/5 387/5/5 386/5/5
f 390/5/5 387/5/5 389/5/5
f 394/5/5 392/5/5 391/5/5
f 395/5/5 392/5/5 394/5/5
f 397/5/5 394/5/5 393/5/5
f 397/5/5 396/5/5 395/5/5
f 397/5/5 395/5/5 394/5/5
f 398/5/5 396/5/5 397/5/5
f 399/5/5 396/5/5 398/5/5
f 400/5/5 397/5/5 393/5/5
f 400/4/5 398/4/5 397/4/5
f 401/4/5 398/4/5 400/4/5
f 402/5/5 396/5/5 399/5/5
f 403/5/5 396/5/5 402/5/5
f 404/5/5 400/5/5 393/5/5
f 407/5/5 396/5/5 403/5/5
f 408/4/5 405/4/5 404/4/5
f 408/5/5 404/5/5 393/5/5
f 409/4/5 405/4/5 408/4/5
f 410/5/5 407/5/5 406/5/5
f 411/5/5 409/5/5 408/5/5
f 411/5/5 410/5/5 409/5/5
f 411/5/5 408/5/5 393/5/5
f 412/5/5 410/5/5 411/5/5
f 413/5/5 407/5/5 410/5/5
f 413/5/5 410/5/5 412/5/5
f 413/5/5 396/5/5 407/5/5
f 414/5/5 396/5/5 413/5/5
f 415/5/5 413/5/5 412/5/5
f 416/5/5 413/5/5 415/5/5
f 420/2/5 418/2/5 417/2/5
f 421/2/5 418/2/5 420/2/5
f 423/2/5 420/2/5 419/2/5
f 424/2/5 420/2/5 423/2/5
f 425/2/5 422/2/5 421/2/5
f 426/2/5 422/2/5 425/2/5
f 431/2/5 428/2/5 427/2/5
f 432/2/5 428/2/5 431/2/5
f 433/2/5 430/2/5 429/2/5
f 434/2/5 430/2/5 433/2/5
f 435/2/5 433/2/5 432/2/5
f 436/2/5 433/2/5 435/2/5
f 439/6/5 438/6/5 437/6/5
f 440/6/5 438/6/5 439/6/5
f 441/2/5 440/2/5 439/2/5
f 442/2/5 440/2/5 441/2/5
f 443/2/5 440/2/5 442/2/5
f 444/2/5 440/2/5 443/2/5
f 448/2/5 446/2/5 445/2/5
f 449/2/5 448/2/5 447/2/5
f 450/2/5 446/2/5 448/2/5
f 450/2/5 448/2/5 449/2/5
f 451/6/5 450/6/5 449/6/5
f 452/6/5 450/6/5 451/6/5
f 455/1/5 454/1/5 453/1/5
f 456/1/5 454/1/5 455/1/5
f 459/1/5 458/1/5 457/1/5
f 460/1/5 458/1/5 459/1/5
f 461/5/6 462/5/6 464/5/6
f 464/5/6 462/5/6 465/5/6
f 465/5/6 462/5/6 466/5/6
f 467/5/6 468/5/6 469/5/6
f 469/5/6 468/5/6 470/5/6
f 463/5/6 464/5/6 471/5/6
f 464/5/6 465/5/6 471/5/6
f 471/5/6 465/5/6 472/5/6
f 472/5/6 465/5/6 473/5/6
f 473/5/6 474/5/6 475/5/6
f 472/5/6 473/5/6 475/5/6
f 475/5/6 474/5/6 476/5/6
f 477/3/6 478/3/6 480/3/6
f 478/6/6 479/6/6 481/6/6
f 480/3/6 478/3/6 481/3/6
f 481/6/6 479/6/6 482/6/6
f 482/6/6 479/6/6 483/6/6
f 484/6/6 485/6/6 487/6/6
f 486/3/6 487/3/6 488/3/6
f 487/6/6 485/6/6 489/6/6
f 488/3/6 487/3/6 489/3/6
f 489/6/6 485/6/6 490/6/6
f 491/3/6 492/3/6 495/3/6
f 495/3/6 492/3/6 496/3/6
f 493/3/6 494/3/6 497/3/6
f 497/3/6 494/3/6 498/3/6
f 498/3/6 499/3/6 503/3/6
f 503/3/6 499/3/6 504/3/6
f 500/3/6 501/3/6 505/3/6
f 505/3/6 501/3/6 506/3/6
f 502/3/6 503/3/6 507/3/6
f 507/3/6 503/3/6 508/3/6
f 509/2/6 510/2/6 511/2/6
f 511/2/6 510/2/6 512/2/6
f 513/2/6 514/2/6 515/2/6
f 515/2/6 514/2/6 516/2/6
f 517/6/6 518/6/6 519/6/6
f 519/6/6 518/6/6 520/6/6
f 519/2/6 520/2/6 521/2/6
f 521/2/6 520/2/6 522/2/6
f 523/2/6 524/2/6 525/2/6
f 525/2/6 524/2/6 526/2/6
f 525/6/6 526/6/6 527/6/6
f 527/6/6 526/6/6 528/6/6
f 529/1/6 530/1/6 531/1/6
f 531/1/6 530/1/6 532/1/6
f 533/1/6 534/1/6 535/1/6
f 535/1/6 534/1/6 536/1/6
f 537/4/6 538/4/6 539/4/6
f 539/4/6 538/4/6 540/4/6
f 537/4/6 539/4/6 541/4/6
f 540/4/6 538/4/6 542/4/6
f 537/4/6 541/4/6 543/4/6
f 541/4/6 542/4/6 543/4/6
f 542/4/6 538/4/6 544/4/6
f 543/4/6 542/4/6 544/4/6
f 545/1/6 546/1/6 547/1/6
f 547/1/6 546/1/6 548/1/6
