# MagicaVoxel @ Ephtracy

# material
mtllib tree.mtl
usemtl palette

# normals
vn -1 0 0
vn 1 0 0
vn 0 0 1
vn 0 0 -1
vn 0 -1 0
vn 0 1 0

# texcoords
vt 0.791016 0.5
vt 0.798828 0.5
vt 0.802734 0.5
vt 0.826172 0.5
vt 0.904297 0.5

# verts
v -4 4 -0
v -4 4 -1
v -4 5 -0
v -4 5 -1
v -3 4 2
v -3 4 1
v -3 4 -1
v -3 4 -2
v -3 5 3
v -3 5 2
v -3 5 1
v -3 5 -0
v -3 5 -1
v -3 5 -2
v -3 6 3
v -3 6 1
v -3 6 -0
v -3 6 -1
v -3 7 1
v -3 7 -0
v -3 7 -1
v -3 8 1
v -3 8 -0
v -3 8 -1
v -3 9 -0
v -3 9 -1
v -2 4 3
v -2 4 2
v -2 4 1
v -2 4 -0
v -2 4 -2
v -2 4 -3
v -2 5 3
v -2 5 2
v -2 5 1
v -2 5 -0
v -2 5 -1
v -2 5 -2
v -2 5 -3
v -2 6 2
v -2 6 1
v -2 6 -0
v -2 6 -1
v -2 6 -2
v -2 7 3
v -2 7 2
v -2 7 1
v -2 7 -0
v -2 7 -1
v -2 7 -2
v -2 8 3
v -2 8 2
v -2 8 1
v -2 8 -0
v -2 8 -1
v -2 9 2
v -2 9 1
v -2 9 -0
v -2 9 -1
v -2 10 2
v -2 10 1
v -2 10 -0
v -2 10 -1
v -2 11 1
v -2 11 -0
v -1 0 1
v -1 0 -0
v -1 4 1
v -1 4 -0
v -1 5 3
v -1 5 2
v -1 7 3
v -1 7 2
v -1 8 -1
v -1 8 -2
v -1 9 -1
v -1 9 -2
v -1 10 2
v -1 10 1
v -1 10 -0
v -1 10 -1
v -1 11 2
v -1 11 1
v -1 11 -0
v -1 11 -1
v -1 12 1
v -1 12 -0
v 0 4 4
v 0 4 3
v 0 4 2
v 0 4 -1
v 0 4 -2
v 0 5 4
v 0 5 3
v 0 5 2
v 0 5 -1
v 0 5 -2
v 0 6 -1
v 0 6 -2
v 0 7 3
v 0 7 2
v 0 7 -1
v 0 7 -2
v 0 8 3
v 0 8 2
v 0 8 -1
v 0 8 -2
v -2 5 3
v -2 5 2
v -2 6 3
v -2 6 2
v -1 4 3
v -1 4 2
v -1 4 -1
v -1 4 -2
v -1 4 -3
v -1 5 3
v -1 5 2
v -1 5 -1
v -1 5 -2
v -1 5 -3
v -1 6 -1
v -1 6 -2
v -1 7 3
v -1 7 2
v -1 7 -1
v -1 7 -2
v -1 8 3
v -1 8 2
v 0 0 1
v 0 0 -0
v 0 4 1
v 0 4 -0
v 0 5 -1
v 0 5 -2
v 0 6 3
v 0 6 2
v 0 6 -1
v 0 6 -2
v 0 7 3
v 0 7 2
v 0 8 -1
v 0 8 -2
v 0 9 -1
v 0 9 -2
v 0 10 2
v 0 10 1
v 0 10 -0
v 0 10 -1
v 0 11 2
v 0 11 1
v 0 11 -0
v 0 11 -1
v 0 12 1
v 0 12 -0
v 1 4 4
v 1 4 3
v 1 4 1
v 1 4 -1
v 1 5 4
v 1 5 3
v 1 5 2
v 1 5 1
v 1 5 -1
v 1 6 3
v 1 6 2
v 1 6 1
v 1 6 -1
v 1 7 3
v 1 7 2
v 1 7 1
v 1 7 -0
v 1 7 -1
v 1 7 -2
v 1 8 3
v 1 8 2
v 1 8 1
v 1 8 -0
v 1 8 -1
v 1 8 -2
v 1 9 2
v 1 9 1
v 1 9 -0
v 1 9 -1
v 1 10 2
v 1 10 1
v 1 10 -0
v 1 10 -1
v 1 11 1
v 1 11 -0
v 2 4 3
v 2 4 2
v 2 4 1
v 2 4 -1
v 2 4 -2
v 2 5 3
v 2 5 2
v 2 5 1
v 2 5 -1
v 2 5 -2
v 2 6 2
v 2 6 1
v 2 6 -1
v 2 6 -2
v 2 7 2
v 2 7 1
v 2 7 -0
v 2 7 -1
v 2 7 -2
v 2 8 2
v 2 8 1
v 2 8 -0
v 2 8 -1
v 2 9 -0
v 2 9 -1
v 0 4 4
v 0 5 4
v 1 4 4
v 1 5 4
v -3 5 3
v -3 6 3
v -2 4 3
v -2 5 3
v -2 6 3
v -2 7 3
v -2 8 3
v -1 4 3
v -1 5 3
v -1 7 3
v -1 8 3
v 0 5 3
v 0 6 3
v 0 7 3
v 0 8 3
v 1 4 3
v 1 5 3
v 1 6 3
v 1 7 3
v 1 8 3
v 2 4 3
v 2 5 3
v -3 4 2
v -3 5 2
v -2 4 2
v -2 5 2
v -2 6 2
v -2 7 2
v -2 8 2
v -2 9 2
v -2 10 2
v -1 4 2
v -1 5 2
v -1 7 2
v -1 8 2
v -1 9 2
v -1 10 2
v -1 11 2
v 0 4 2
v 0 5 2
v 0 6 2
v 0 7 2
v 0 8 2
v 0 9 2
v 0 10 2
v 0 11 2
v 1 6 2
v 1 7 2
v 1 8 2
v 1 9 2
v 1 10 2
v 2 6 2
v 2 7 2
v 2 8 2
v -3 7 1
v -3 8 1
v -2 7 1
v -2 8 1
v -2 10 1
v -2 11 1
v -1 0 1
v -1 4 1
v -1 10 1
v -1 11 1
v -1 12 1
v 0 0 1
v 0 4 1
v 0 10 1
v 0 11 1
v 0 12 1
v 1 5 1
v 1 6 1
v 1 10 1
v 1 11 1
v 2 5 1
v 2 6 1
v -4 4 -0
v -4 5 -0
v -3 4 -0
v -3 5 -0
v -3 6 -0
v -3 7 -0
v -3 8 -0
v -3 9 -0
v -2 4 -0
v -2 5 -0
v -2 6 -0
v -2 7 -0
v -2 8 -0
v -2 9 -0
v 1 7 -0
v 1 8 -0
v 1 9 -0
v 2 7 -0
v 2 8 -0
v 2 9 -0
v 1 4 -1
v 1 5 -1
v 1 6 -1
v 1 7 -1
v 2 4 -1
v 2 5 -1
v 2 6 -1
v 2 7 -1
v -3 4 1
v -3 5 1
v -2 4 1
v -2 5 1
v 1 4 1
v 1 5 1
v 1 6 1
v 1 7 1
v 1 8 1
v 2 4 1
v 2 5 1
v 2 6 1
v 2 7 1
v 2 8 1
v -3 5 -0
v -3 6 -0
v -3 7 -0
v -3 8 -0
v -2 5 -0
v -2 6 -0
v -2 7 -0
v -2 8 -0
v -2 10 -0
v -2 11 -0
v -1 0 -0
v -1 4 -0
v -1 10 -0
v -1 11 -0
v -1 12 -0
v 0 0 -0
v 0 4 -0
v 0 10 -0
v 0 11 -0
v 0 12 -0
v 1 10 -0
v 1 11 -0
v -4 4 -1
v -4 5 -1
v -3 4 -1
v -3 5 -1
v -3 6 -1
v -3 7 -1
v -3 8 -1
v -3 9 -1
v -2 6 -1
v -2 7 -1
v -2 8 -1
v -2 9 -1
v -2 10 -1
v -1 4 -1
v -1 5 -1
v -1 6 -1
v -1 7 -1
v -1 8 -1
v -1 9 -1
v -1 10 -1
v -1 11 -1
v 0 4 -1
v 0 5 -1
v 0 6 -1
v 0 7 -1
v 0 8 -1
v 0 9 -1
v 0 10 -1
v 0 11 -1
v 1 5 -1
v 1 6 -1
v 1 7 -1
v 1 8 -1
v 1 9 -1
v 1 10 -1
v 2 5 -1
v 2 6 -1
v 2 7 -1
v 2 8 -1
v 2 9 -1
v -3 4 -2
v -3 5 -2
v -2 4 -2
v -2 5 -2
v -2 6 -2
v -2 7 -2
v -1 5 -2
v -1 6 -2
v -1 7 -2
v -1 8 -2
v -1 9 -2
v 0 4 -2
v 0 5 -2
v 0 6 -2
v 0 7 -2
v 0 8 -2
v 0 9 -2
v 1 4 -2
v 1 5 -2
v 1 6 -2
v 1 7 -2
v 1 8 -2
v 2 4 -2
v 2 5 -2
v 2 6 -2
v 2 7 -2
v -2 4 -3
v -2 5 -3
v -1 4 -3
v -1 5 -3
v -1 0 1
v 0 0 1
v -1 0 -0
v 0 0 -0
v 0 4 4
v 1 4 4
v -2 4 3
v -1 4 3
v 0 4 3
v 1 4 3
v 2 4 3
v -3 4 2
v -2 4 2
v -1 4 2
v 0 4 2
v 1 4 2
v 2 4 2
v -3 4 1
v -2 4 1
v -1 4 1
v 0 4 1
v 1 4 1
v 2 4 1
v -4 4 -0
v -3 4 -0
v -2 4 -0
v -1 4 -0
v 0 4 -0
v -4 4 -1
v -3 4 -1
v -2 4 -1
v -1 4 -1
v 0 4 -1
v 1 4 -1
v 2 4 -1
v -3 4 -2
v -2 4 -2
v -1 4 -2
v 0 4 -2
v 1 4 -2
v 2 4 -2
v -2 4 -3
v -1 4 -3
v -3 5 3
v -2 5 3
v -1 5 3
v 0 5 3
v -3 5 2
v -2 5 2
v -1 5 2
v 0 5 2
v -3 5 1
v -2 5 1
v 1 5 1
v 2 5 1
v -3 5 -0
v -2 5 -0
v -1 5 -1
v 0 5 -1
v 1 5 -1
v 2 5 -1
v -1 5 -2
v 0 5 -2
v 1 6 2
v 2 6 2
v 1 6 1
v 2 6 1
v -3 6 -0
v -2 6 -0
v -3 6 -1
v -2 6 -1
v 0 6 -1
v 1 6 -1
v 2 6 -1
v 0 6 -2
v 1 6 -2
v 2 6 -2
v -2 7 3
v -1 7 3
v 0 7 3
v 1 7 3
v -2 7 2
v -1 7 2
v 0 7 2
v 1 7 2
v -3 7 1
v -2 7 1
v -3 7 -0
v -2 7 -0
v 1 7 -0
v 2 7 -0
v 1 7 -1
v 2 7 -1
v -3 8 -0
v -2 8 -0
v -3 8 -1
v -2 8 -1
v -1 8 -1
v 0 8 -1
v -1 8 -2
v 0 8 -2
v 0 5 4
v 1 5 4
v -2 5 3
v -1 5 3
v 0 5 3
v 1 5 3
v 2 5 3
v -2 5 2
v -1 5 2
v 1 5 2
v 2 5 2
v 1 5 1
v 2 5 1
v -4 5 -0
v -3 5 -0
v -2 5 -0
v -4 5 -1
v -3 5 -1
v -2 5 -1
v 0 5 -1
v 1 5 -1
v 2 5 -1
v -3 5 -2
v -2 5 -2
v -1 5 -2
v 0 5 -2
v 1 5 -2
v 2 5 -2
v -2 5 -3
v -1 5 -3
v -3 6 3
v -2 6 3
v 0 6 3
v 1 6 3
v -2 6 2
v 0 6 2
v 1 6 2
v -3 6 1
v -2 6 1
v 1 6 1
v 2 6 1
v -3 6 -0
v -2 6 -0
v -1 6 -1
v 0 6 -1
v 1 6 -1
v 2 6 -1
v -1 6 -2
v 0 6 -2
v -1 7 3
v 0 7 3
v -1 7 2
v 0 7 2
v -3 7 -0
v -2 7 -0
v -3 7 -1
v -2 7 -1
v -1 7 -1
v 1 7 -1
v 2 7 -1
v -2 7 -2
v -1 7 -2
v 1 7 -2
v 2 7 -2
v -2 8 3
v -1 8 3
v 0 8 3
v 1 8 3
v -2 8 2
v -1 8 2
v 0 8 2
v 1 8 2
v 2 8 2
v -3 8 1
v -2 8 1
v 1 8 1
v 2 8 1
v -3 8 -0
v -2 8 -0
v 0 8 -1
v 1 8 -1
v 0 8 -2
v 1 8 -2
v -3 9 -0
v -2 9 -0
v 1 9 -0
v 2 9 -0
v -3 9 -1
v -2 9 -1
v -1 9 -1
v 0 9 -1
v 1 9 -1
v 2 9 -1
v -1 9 -2
v 0 9 -2
v -2 10 2
v -1 10 2
v 0 10 2
v 1 10 2
v -2 10 1
v -1 10 1
v 0 10 1
v 1 10 1
v -2 10 -0
v -1 10 -0
v 0 10 -0
v 1 10 -0
v -2 10 -1
v -1 10 -1
v 0 10 -1
v 1 10 -1
v -1 11 2
v 0 11 2
v -2 11 1
v -1 11 1
v 0 11 1
v 1 11 1
v -2 11 -0
v -1 11 -0
v 0 11 -0
v 1 11 -0
v -1 11 -1
v 0 11 -1
v -1 12 1
v 0 12 1
v -1 12 -0
v 0 12 -0

# faces
f 3/1/1 2/1/1 1/1/1
f 4/1/1 2/1/1 3/1/1
f 10/2/1 6/2/1 5/2/1
f 11/2/1 6/2/1 10/2/1
f 13/2/1 8/2/1 7/2/1
f 14/2/1 8/2/1 13/2/1
f 15/1/1 10/1/1 9/1/1
f 15/1/1 11/1/1 10/1/1
f 16/2/1 12/2/1 11/2/1
f 16/1/1 11/1/1 15/1/1
f 17/2/1 12/2/1 16/2/1
f 20/2/1 18/2/1 17/2/1
f 21/2/1 18/2/1 20/2/1
f 22/1/1 20/1/1 19/1/1
f 23/1/1 20/1/1 22/1/1
f 25/1/1 24/1/1 23/1/1
f 26/1/1 24/1/1 25/1/1
f 33/1/1 28/1/1 27/1/1
f 34/1/1 28/1/1 33/1/1
f 35/3/1 30/3/1 29/3/1
f 36/3/1 30/3/1 35/3/1
f 38/1/1 32/1/1 31/1/1
f 39/1/1 32/1/1 38/1/1
f 42/3/1 37/3/1 36/3/1
f 43/2/1 38/2/1 37/2/1
f 43/3/1 37/3/1 42/3/1
f 44/2/1 38/2/1 43/2/1
f 46/3/1 41/3/1 40/3/1
f 46/3/1 42/3/1 41/3/1
f 47/3/1 42/3/1 46/3/1
f 48/3/1 42/3/1 47/3/1
f 49/1/1 44/1/1 43/1/1
f 50/1/1 44/1/1 49/1/1
f 51/1/1 46/1/1 45/1/1
f 52/3/1 47/3/1 46/3/1
f 52/1/1 46/1/1 51/1/1
f 53/3/1 47/3/1 52/3/1
f 54/3/1 49/3/1 48/3/1
f 55/3/1 49/3/1 54/3/1
f 56/2/1 53/2/1 52/2/1
f 57/3/1 54/3/1 53/3/1
f 57/2/1 53/2/1 56/2/1
f 58/3/1 54/3/1 57/3/1
f 60/4/1 57/4/1 56/4/1
f 61/2/1 58/2/1 57/2/1
f 61/4/1 57/4/1 60/4/1
f 62/1/1 59/1/1 58/1/1
f 62/2/1 58/2/1 61/2/1
f 63/1/1 59/1/1 62/1/1
f 64/4/1 62/4/1 61/4/1
f 65/4/1 62/4/1 64/4/1
f 68/5/1 67/5/1 66/5/1
f 69/5/1 67/5/1 68/5/1
f 72/2/1 71/2/1 70/2/1
f 73/2/1 71/2/1 72/2/1
f 76/1/1 75/1/1 74/1/1
f 77/1/1 75/1/1 76/1/1
f 82/1/1 79/1/1 78/1/1
f 83/1/1 79/1/1 82/1/1
f 84/1/1 81/1/1 80/1/1
f 85/1/1 81/1/1 84/1/1
f 86/4/1 84/4/1 83/4/1
f 87/4/1 84/4/1 86/4/1
f 93/1/1 89/1/1 88/1/1
f 94/2/1 90/2/1 89/2/1
f 94/1/1 89/1/1 93/1/1
f 95/2/1 90/2/1 94/2/1
f 96/2/1 92/2/1 91/2/1
f 97/2/1 92/2/1 96/2/1
f 102/2/1 99/2/1 98/2/1
f 103/2/1 99/2/1 102/2/1
f 104/1/1 101/1/1 100/1/1
f 105/1/1 101/1/1 104/1/1
f 106/1/1 103/1/1 102/1/1
f 107/1/1 103/1/1 106/1/1
f 108/1/2 109/1/2 110/1/2
f 110/1/2 109/1/2 111/1/2
f 112/1/2 113/1/2 117/1/2
f 117/1/2 113/1/2 118/1/2
f 114/2/2 115/2/2 119/2/2
f 115/1/2 116/1/2 120/1/2
f 119/2/2 115/2/2 120/2/2
f 120/1/2 116/1/2 121/1/2
f 122/1/2 123/1/2 126/1/2
f 126/1/2 123/1/2 127/1/2
f 124/1/2 125/1/2 128/1/2
f 128/1/2 125/1/2 129/1/2
f 130/5/2 131/5/2 132/5/2
f 132/5/2 131/5/2 133/5/2
f 134/2/2 135/2/2 138/2/2
f 138/2/2 135/2/2 139/2/2
f 136/2/2 137/2/2 140/2/2
f 140/2/2 137/2/2 141/2/2
f 142/1/2 143/1/2 144/1/2
f 144/1/2 143/1/2 145/1/2
f 146/1/2 147/1/2 150/1/2
f 150/1/2 147/1/2 151/1/2
f 148/1/2 149/1/2 152/1/2
f 152/1/2 149/1/2 153/1/2
f 151/4/2 152/4/2 154/4/2
f 154/4/2 152/4/2 155/4/2
f 156/1/2 157/1/2 160/1/2
f 160/1/2 157/1/2 161/1/2
f 158/3/2 159/3/2 163/3/2
f 163/3/2 159/3/2 164/3/2
f 161/1/2 162/1/2 165/1/2
f 162/3/2 163/3/2 166/3/2
f 165/1/2 162/1/2 166/1/2
f 166/3/2 163/3/2 167/3/2
f 167/3/2 168/3/2 171/3/2
f 171/3/2 168/3/2 172/3/2
f 172/3/2 168/3/2 173/3/2
f 169/1/2 170/1/2 175/1/2
f 175/1/2 170/1/2 176/1/2
f 171/2/2 172/2/2 177/2/2
f 177/2/2 172/2/2 178/2/2
f 173/1/2 174/1/2 179/1/2
f 179/1/2 174/1/2 180/1/2
f 177/2/2 178/2/2 181/2/2
f 176/2/2 177/2/2 181/2/2
f 181/2/2 178/2/2 182/2/2
f 182/2/2 178/2/2 183/2/2
f 181/1/2 182/1/2 185/1/2
f 182/2/2 183/2/2 186/2/2
f 185/1/2 182/1/2 186/1/2
f 183/4/2 184/4/2 187/4/2
f 186/2/2 183/2/2 187/2/2
f 187/4/2 184/4/2 188/4/2
f 186/4/2 187/4/2 189/4/2
f 189/4/2 187/4/2 190/4/2
f 191/1/2 192/1/2 196/1/2
f 192/2/2 193/2/2 197/2/2
f 196/1/2 192/1/2 197/1/2
f 197/2/2 193/2/2 198/2/2
f 194/1/2 195/1/2 199/1/2
f 199/1/2 195/1/2 200/1/2
f 198/1/2 199/1/2 202/1/2
f 202/1/2 199/1/2 203/1/2
f 201/2/2 202/2/2 205/2/2
f 205/2/2 202/2/2 206/2/2
f 203/1/2 204/1/2 208/1/2
f 208/1/2 204/1/2 209/1/2
f 205/1/2 206/1/2 210/1/2
f 210/1/2 206/1/2 211/1/2
f 207/2/2 208/2/2 212/2/2
f 212/2/2 208/2/2 213/2/2
f 212/1/2 213/1/2 214/1/2
f 214/1/2 213/1/2 215/1/2
f 218/1/3 217/1/3 216/1/3
f 219/1/3 217/1/3 218/1/3
f 223/1/3 221/1/3 220/1/3
f 224/1/3 221/1/3 223/1/3
f 227/1/3 223/1/3 222/1/3
f 228/1/3 223/1/3 227/1/3
f 229/1/3 226/1/3 225/1/3
f 230/1/3 226/1/3 229/1/3
f 231/2/3 229/2/3 228/2/3
f 232/2/3 229/2/3 231/2/3
f 233/2/3 229/2/3 232/2/3
f 236/1/3 232/1/3 231/1/3
f 237/1/3 232/1/3 236/1/3
f 238/1/3 234/1/3 233/1/3
f 239/1/3 234/1/3 238/1/3
f 240/1/3 236/1/3 235/1/3
f 241/1/3 236/1/3 240/1/3
f 244/2/3 243/2/3 242/2/3
f 245/2/3 243/2/3 244/2/3
f 252/3/3 246/3/3 245/3/3
f 252/3/3 247/3/3 246/3/3
f 253/3/3 247/3/3 252/3/3
f 254/2/3 249/2/3 248/2/3
f 255/4/3 250/4/3 249/4/3
f 255/2/3 249/2/3 254/2/3
f 256/4/3 250/4/3 255/4/3
f 258/3/3 252/3/3 251/3/3
f 259/3/3 252/3/3 258/3/3
f 261/3/3 254/3/3 253/3/3
f 262/2/3 256/2/3 255/2/3
f 262/2/3 255/2/3 254/2/3
f 262/3/3 254/3/3 261/3/3
f 263/2/3 256/2/3 262/2/3
f 264/1/3 257/1/3 256/1/3
f 264/2/3 256/2/3 263/2/3
f 265/1/3 257/1/3 264/1/3
f 266/3/3 261/3/3 260/3/3
f 267/3/3 261/3/3 266/3/3
f 268/2/3 263/2/3 262/2/3
f 269/1/3 264/1/3 263/1/3
f 269/2/3 263/2/3 268/2/3
f 270/1/3 264/1/3 269/1/3
f 271/2/3 267/2/3 266/2/3
f 272/1/3 268/1/3 267/1/3
f 272/2/3 267/2/3 271/2/3
f 273/1/3 268/1/3 272/1/3
f 276/1/3 275/1/3 274/1/3
f 277/1/3 275/1/3 276/1/3
f 282/4/3 279/4/3 278/4/3
f 283/4/3 279/4/3 282/4/3
f 285/5/3 281/5/3 280/5/3
f 286/5/3 281/5/3 285/5/3
f 288/4/3 284/4/3 283/4/3
f 289/4/3 284/4/3 288/4/3
f 292/4/3 288/4/3 287/4/3
f 293/4/3 288/4/3 292/4/3
f 294/1/3 291/1/3 290/1/3
f 295/1/3 291/1/3 294/1/3
f 298/1/3 297/1/3 296/1/3
f 299/1/3 297/1/3 298/1/3
f 304/2/3 299/2/3 298/2/3
f 305/2/3 299/2/3 304/2/3
f 306/2/3 301/2/3 300/2/3
f 307/2/3 301/2/3 306/2/3
f 308/1/3 303/1/3 302/1/3
f 309/1/3 303/1/3 308/1/3
f 313/2/3 311/2/3 310/2/3
f 314/1/3 312/1/3 311/1/3
f 314/2/3 311/2/3 313/2/3
f 315/1/3 312/1/3 314/1/3
f 320/1/3 317/1/3 316/1/3
f 321/1/3 317/1/3 320/1/3
f 322/1/3 319/1/3 318/1/3
f 323/1/3 319/1/3 322/1/3
f 324/2/4 325/2/4 326/2/4
f 326/2/4 325/2/4 327/2/4
f 328/2/4 329/2/4 333/2/4
f 333/2/4 329/2/4 334/2/4
f 330/2/4 331/2/4 335/2/4
f 331/1/4 332/1/4 336/1/4
f 335/2/4 331/2/4 336/2/4
f 336/1/4 332/1/4 337/1/4
f 338/2/4 339/2/4 342/2/4
f 342/2/4 339/2/4 343/2/4
f 340/1/4 341/1/4 344/1/4
f 344/1/4 341/1/4 345/1/4
f 346/4/4 347/4/4 350/4/4
f 350/4/4 347/4/4 351/4/4
f 348/5/4 349/5/4 353/5/4
f 353/5/4 349/5/4 354/5/4
f 351/4/4 352/4/4 356/4/4
f 356/4/4 352/4/4 357/4/4
f 355/4/4 356/4/4 358/4/4
f 358/4/4 356/4/4 359/4/4
f 360/1/4 361/1/4 362/1/4
f 362/1/4 361/1/4 363/1/4
f 364/2/4 365/2/4 368/2/4
f 368/2/4 365/2/4 369/2/4
f 366/1/4 367/1/4 370/1/4
f 370/1/4 367/1/4 371/1/4
f 369/3/4 370/3/4 376/3/4
f 370/2/4 371/2/4 377/2/4
f 376/3/4 370/3/4 377/3/4
f 371/1/4 372/1/4 378/1/4
f 377/2/4 371/2/4 378/2/4
f 378/1/4 372/1/4 379/1/4
f 373/3/4 374/3/4 381/3/4
f 381/3/4 374/3/4 382/3/4
f 375/3/4 376/3/4 383/3/4
f 376/2/4 377/2/4 384/2/4
f 383/3/4 376/3/4 384/3/4
f 384/2/4 377/2/4 385/2/4
f 378/2/4 379/2/4 386/2/4
f 379/1/4 380/1/4 387/1/4
f 386/2/4 379/2/4 387/2/4
f 387/1/4 380/1/4 388/1/4
f 382/3/4 383/3/4 389/3/4
f 389/3/4 383/3/4 390/3/4
f 385/2/4 386/2/4 392/2/4
f 386/4/4 387/4/4 393/4/4
f 392/2/4 386/2/4 393/2/4
f 393/4/4 387/4/4 394/4/4
f 389/1/4 390/1/4 395/1/4
f 395/1/4 390/1/4 396/1/4
f 391/2/4 392/2/4 397/2/4
f 392/1/4 393/1/4 398/1/4
f 397/2/4 392/2/4 398/2/4
f 398/1/4 393/1/4 399/1/4
f 400/2/4 401/2/4 402/2/4
f 402/2/4 401/2/4 403/2/4
f 403/2/4 404/2/4 406/2/4
f 404/1/4 405/1/4 407/1/4
f 406/2/4 404/2/4 407/2/4
f 407/1/4 405/1/4 408/1/4
f 406/2/4 407/2/4 412/2/4
f 412/2/4 407/2/4 413/2/4
f 409/1/4 410/1/4 415/1/4
f 415/1/4 410/1/4 416/1/4
f 411/2/4 412/2/4 417/2/4
f 417/2/4 412/2/4 418/2/4
f 413/2/4 414/2/4 419/2/4
f 414/1/4 415/1/4 420/1/4
f 419/2/4 414/2/4 420/2/4
f 420/1/4 415/1/4 421/1/4
f 417/1/4 418/1/4 422/1/4
f 422/1/4 418/1/4 423/1/4
f 419/1/4 420/1/4 424/1/4
f 424/1/4 420/1/4 425/1/4
f 426/1/4 427/1/4 428/1/4
f 428/1/4 427/1/4 429/1/4
f 432/5/5 431/5/5 430/5/5
f 433/5/5 431/5/5 432/5/5
f 438/1/5 435/1/5 434/1/5
f 439/1/5 435/1/5 438/1/5
f 442/1/5 437/1/5 436/1/5
f 443/1/5 437/1/5 442/1/5
f 444/2/5 439/2/5 438/2/5
f 445/1/5 440/1/5 439/1/5
f 445/2/5 439/2/5 444/2/5
f 446/1/5 440/1/5 445/1/5
f 447/2/5 442/2/5 441/2/5
f 448/3/5 444/3/5 443/3/5
f 448/2/5 442/2/5 447/2/5
f 448/3/5 443/3/5 442/3/5
f 448/3/5 445/3/5 444/3/5
f 449/3/5 445/3/5 448/3/5
f 450/3/5 445/3/5 449/3/5
f 451/2/5 446/2/5 445/2/5
f 451/3/5 445/3/5 450/3/5
f 452/2/5 446/2/5 451/2/5
f 455/3/5 449/3/5 448/3/5
f 456/3/5 449/3/5 455/3/5
f 457/3/5 451/3/5 450/3/5
f 458/1/5 454/1/5 453/1/5
f 459/2/5 455/2/5 454/2/5
f 459/1/5 454/1/5 458/1/5
f 460/3/5 456/3/5 455/3/5
f 460/2/5 455/2/5 459/2/5
f 460/3/5 457/3/5 456/3/5
f 461/3/5 457/3/5 460/3/5
f 462/3/5 451/3/5 457/3/5
f 462/3/5 457/3/5 461/3/5
f 463/3/5 451/3/5 462/3/5
f 465/2/5 461/2/5 460/2/5
f 465/2/5 460/2/5 459/2/5
f 466/2/5 461/2/5 465/2/5
f 467/2/5 461/2/5 466/2/5
f 468/2/5 463/2/5 462/2/5
f 469/1/5 464/1/5 463/1/5
f 469/2/5 463/2/5 468/2/5
f 470/1/5 464/1/5 469/1/5
f 471/1/5 467/1/5 466/1/5
f 472/1/5 467/1/5 471/1/5
f 477/1/5 474/1/5 473/1/5
f 478/1/5 474/1/5 477/1/5
f 479/2/5 476/2/5 475/2/5
f 480/2/5 476/2/5 479/2/5
f 485/2/5 482/2/5 481/2/5
f 486/2/5 482/2/5 485/2/5
f 489/1/5 484/1/5 483/1/5
f 490/1/5 484/1/5 489/1/5
f 491/2/5 488/2/5 487/2/5
f 492/2/5 488/2/5 491/2/5
f 495/2/5 494/2/5 493/2/5
f 496/2/5 494/2/5 495/2/5
f 499/2/5 498/2/5 497/2/5
f 500/2/5 498/2/5 499/2/5
f 504/2/5 502/2/5 501/2/5
f 505/1/5 503/1/5 502/1/5
f 505/2/5 502/2/5 504/2/5
f 506/1/5 503/1/5 505/1/5
f 511/1/5 508/1/5 507/1/5
f 512/1/5 508/1/5 511/1/5
f 513/1/5 510/1/5 509/1/5
f 514/1/5 510/1/5 513/1/5
f 517/1/5 516/1/5 515/1/5
f 518/1/5 516/1/5 517/1/5
f 521/2/5 520/2/5 519/2/5
f 522/2/5 520/2/5 521/2/5
f 525/1/5 524/1/5 523/1/5
f 526/1/5 524/1/5 525/1/5
f 529/1/5 528/1/5 527/1/5
f 530/1/5 528/1/5 529/1/5
f 531/1/6 532/1/6 535/1/6
f 535/1/6 532/1/6 536/1/6
f 533/1/6 534/1/6 538/1/6
f 538/1/6 534/1/6 539/1/6
f 536/1/6 537/1/6 540/1/6
f 540/1/6 537/1/6 541/1/6
f 540/2/6 541/2/6 542/2/6
f 542/2/6 541/2/6 543/2/6
f 544/1/6 545/1/6 547/1/6
f 545/2/6 546/2/6 548/2/6
f 547/1/6 545/1/6 548/1/6
f 548/2/6 546/2/6 549/2/6
f 548/2/6 549/2/6 553/2/6
f 553/2/6 549/2/6 554/2/6
f 550/2/6 551/2/6 556/2/6
f 551/1/6 552/1/6 557/1/6
f 556/2/6 551/2/6 557/2/6
f 557/1/6 552/1/6 558/1/6
f 554/1/6 555/1/6 559/1/6
f 559/1/6 555/1/6 560/1/6
f 561/1/6 562/1/6 565/1/6
f 563/1/6 564/1/6 566/1/6
f 566/1/6 564/1/6 567/1/6
f 561/1/6 565/1/6 568/1/6
f 568/1/6 565/1/6 569/1/6
f 568/2/6 569/2/6 572/2/6
f 572/2/6 569/2/6 573/2/6
f 570/1/6 571/1/6 576/1/6
f 576/1/6 571/1/6 577/1/6
f 574/2/6 575/2/6 578/2/6
f 578/2/6 575/2/6 579/2/6
f 580/2/6 581/2/6 582/2/6
f 582/2/6 581/2/6 583/2/6
f 584/2/6 585/2/6 586/2/6
f 586/2/6 585/2/6 587/2/6
f 587/1/6 588/1/6 591/1/6
f 591/1/6 588/1/6 592/1/6
f 589/1/6 590/1/6 593/1/6
f 593/1/6 590/1/6 594/1/6
f 595/1/6 596/1/6 599/1/6
f 599/1/6 596/1/6 600/1/6
f 597/1/6 598/1/6 601/1/6
f 601/1/6 598/1/6 602/1/6
f 602/1/6 603/1/6 606/1/6
f 606/1/6 603/1/6 607/1/6
f 604/1/6 605/1/6 608/1/6
f 608/1/6 605/1/6 609/1/6
f 610/1/6 611/1/6 612/1/6
f 612/1/6 611/1/6 613/1/6
f 614/1/6 615/1/6 618/1/6
f 618/1/6 615/1/6 619/1/6
f 616/1/6 617/1/6 622/1/6
f 622/1/6 617/1/6 623/1/6
f 620/1/6 621/1/6 624/1/6
f 624/1/6 621/1/6 625/1/6
f 626/4/6 627/4/6 630/4/6
f 630/4/6 627/4/6 631/4/6
f 628/1/6 629/1/6 632/1/6
f 632/1/6 629/1/6 633/1/6
f 634/1/6 635/1/6 638/1/6
f 638/1/6 635/1/6 639/1/6
f 636/4/6 637/4/6 640/4/6
f 640/4/6 637/4/6 641/4/6
f 642/1/6 643/1/6 645/1/6
f 645/1/6 643/1/6 646/1/6
f 644/4/6 645/4/6 648/4/6
f 648/4/6 645/4/6 649/4/6
f 646/4/6 647/4/6 650/4/6
f 650/4/6 647/4/6 651/4/6
f 649/1/6 650/1/6 652/1/6
f 652/1/6 650/1/6 653/1/6
f 654/4/6 655/4/6 656/4/6
f 656/4/6 655/4/6 657/4/6
